<?xml version="1.0" standalone="no"?>
<!DOCTYPE svg PUBLIC "-//W3C//DTD SVG 20010904//EN"
 "http://www.w3.org/TR/2001/REC-SVG-20010904/DTD/svg10.dtd">
<svg version="1.0" xmlns="http://www.w3.org/2000/svg"
 width="942.000000pt" height="942.000000pt" viewBox="0 0 942.000000 942.000000"
 preserveAspectRatio="xMidYMid meet">
<metadata>
Created by potrace 1.11, written by Peter Selinger 2001-2013
</metadata>
<g transform="translate(0.000000,942.000000) scale(0.100000,-0.100000)"
fill="#000000" stroke="none">
<path d="M4309 9373 c-34 -57 -89 -145 -110 -175 -11 -15 -19 -33 -19 -40 -1
-7 -36 -71 -79 -141 l-79 -128 -284 1 -285 1 -52 -82 c-83 -128 -142 -231
-136 -237 2 -3 -2 -10 -10 -16 -8 -6 -34 -49 -58 -96 l-43 -85 -302 -3 c-259
-2 -302 -4 -302 -17 0 -25 -3 -29 -27 -48 -13 -10 -23 -25 -23 -34 0 -8 -8
-27 -19 -41 -10 -15 -30 -49 -44 -77 -14 -27 -37 -67 -51 -88 -15 -21 -23 -43
-20 -49 4 -6 3 -8 -3 -5 -5 3 -30 -30 -55 -74 l-45 -80 -290 1 c-325 1 -300 6
-344 -80 -12 -25 -37 -70 -56 -101 -18 -31 -33 -63 -33 -71 0 -9 -14 -32 -30
-53 -18 -23 -28 -45 -25 -54 3 -8 3 -12 -1 -8 -4 3 -27 -27 -51 -68 l-43 -75
-295 0 -294 0 -12 -22 c-7 -13 -16 -25 -20 -28 -5 -3 -33 -53 -62 -110 -30
-58 -69 -130 -87 -160 -17 -30 -51 -89 -74 -130 -24 -41 -51 -89 -61 -106
l-19 -31 43 -72 c23 -40 56 -98 72 -129 16 -31 47 -84 69 -117 21 -33 39 -67
39 -75 1 -8 15 -35 31 -59 17 -24 30 -50 30 -57 0 -7 -18 -49 -41 -93 -22 -44
-38 -85 -34 -91 4 -6 3 -10 -2 -9 -18 3 -33 -2 -33 -11 0 -5 -14 -32 -30 -58
-17 -27 -30 -55 -31 -63 0 -8 -13 -33 -27 -55 -15 -23 -40 -63 -56 -89 l-29
-47 27 -54 c15 -30 38 -67 51 -82 12 -15 32 -49 43 -75 14 -32 26 -46 33 -41
7 4 9 3 5 -4 -8 -13 13 -62 27 -62 6 0 8 -2 5 -6 -3 -3 16 -45 43 -95 55 -101
58 -130 16 -171 -15 -15 -27 -34 -27 -43 0 -9 -10 -29 -21 -44 -13 -17 -18
-34 -14 -42 5 -7 4 -10 -3 -6 -10 7 -72 -91 -72 -115 0 -7 -21 -44 -45 -83
-25 -38 -43 -75 -40 -83 2 -7 0 -10 -5 -7 -6 3 -13 0 -16 -8 -3 -8 20 -55 50
-105 31 -50 56 -95 56 -101 0 -6 10 -28 23 -49 12 -20 29 -49 36 -64 8 -15 19
-25 24 -21 6 4 7 1 2 -7 -4 -7 -4 -15 1 -19 22 -15 83 -151 81 -179 -1 -17 -6
-30 -10 -29 -4 1 -28 -36 -53 -83 -25 -47 -59 -106 -75 -133 -16 -26 -29 -54
-29 -62 0 -8 -8 -23 -18 -33 -10 -10 -35 -48 -55 -84 -39 -70 -39 -80 -3 -133
25 -36 44 -70 96 -179 13 -26 39 -67 57 -90 18 -22 33 -48 33 -56 0 -9 4 -20
9 -25 5 -6 20 -32 34 -59 l26 -49 -35 -54 c-19 -29 -34 -58 -34 -63 0 -6 -25
-50 -55 -99 -30 -49 -55 -91 -55 -94 0 -2 -25 -49 -56 -103 -62 -110 -62 -92
6 -204 22 -36 46 -78 53 -95 22 -48 74 -125 81 -120 3 3 4 2 2 -1 -7 -10 49
-126 95 -197 l42 -67 290 0 c329 0 291 11 354 -100 20 -36 47 -79 60 -97 13
-17 29 -48 34 -67 7 -24 14 -34 22 -30 7 4 9 4 5 0 -7 -9 73 -168 100 -199 14
-16 40 -17 305 -17 l289 1 39 -67 c21 -36 39 -68 39 -69 0 -2 15 -25 33 -52
18 -27 60 -97 92 -156 32 -59 62 -104 67 -101 5 3 8 2 7 -3 -1 -4 1 -20 6 -36
l7 -28 297 1 296 1 27 -43 c14 -24 30 -47 35 -53 4 -5 10 -19 11 -30 2 -10 12
-30 23 -43 10 -14 19 -28 19 -33 0 -9 67 -124 91 -156 9 -12 19 -20 21 -17 3
3 8 -2 12 -11 3 -9 2 -13 -4 -10 -6 3 8 -23 31 -59 l41 -66 287 0 286 0 75
-126 c41 -69 78 -128 83 -131 4 -2 4 -9 1 -15 -4 -6 -2 -13 3 -17 5 -3 38 -54
73 -113 l65 -108 331 0 331 0 28 53 c16 28 41 70 57 91 15 21 28 45 28 53 0 7
7 16 15 19 8 4 15 12 15 19 0 7 11 32 24 56 14 24 22 48 19 53 -4 6 -3 8 2 4
10 -10 57 61 49 74 -4 6 -3 8 2 5 6 -3 20 14 33 39 l24 44 288 0 288 0 27 48
c15 26 34 55 42 64 8 9 11 23 6 30 -4 7 -4 10 1 6 14 -14 120 156 109 174 -4
6 -3 8 2 5 5 -3 33 38 61 91 l50 97 299 5 c165 3 300 7 300 8 1 1 7 16 14 32
7 17 19 34 26 38 8 4 15 20 16 34 1 15 5 25 8 23 7 -5 45 66 42 78 -1 4 2 7 6
7 5 0 19 19 32 43 12 23 29 50 37 59 9 9 12 23 7 30 -4 7 -3 10 1 5 5 -4 30
29 56 74 l48 81 288 -1 c277 -2 290 -1 307 18 10 11 15 25 10 32 -4 7 -3 10 3
6 12 -7 96 150 88 164 -4 5 -1 8 6 7 13 -3 32 50 23 64 -3 5 0 7 8 6 7 -2 12
5 12 14 -1 10 2 15 7 13 4 -3 27 27 51 67 78 132 31 117 369 120 272 3 294 4
293 20 -1 10 2 16 6 13 11 -7 60 72 104 167 20 42 42 83 49 90 7 7 26 40 43
73 17 33 52 95 78 138 l48 79 -33 61 c-18 34 -42 78 -54 97 -12 19 -25 45 -29
58 -4 12 -12 19 -18 16 -6 -4 -8 -2 -4 4 3 6 -7 31 -24 55 -17 25 -38 63 -48
86 -11 22 -22 38 -27 33 -5 -4 -5 -2 -1 5 3 6 -5 29 -20 50 -18 27 -24 45 -19
63 3 14 7 33 8 42 1 9 5 14 9 12 5 -3 20 20 34 52 14 32 36 70 49 86 13 15 46
74 74 131 27 57 56 109 64 116 8 6 20 25 27 41 11 27 9 35 -24 91 -20 33 -36
65 -36 70 0 5 -4 9 -8 9 -4 0 -30 43 -57 95 -27 53 -56 103 -65 113 -8 9 -16
25 -18 35 -2 11 -16 40 -33 67 -16 26 -29 54 -29 62 0 8 13 35 30 59 16 24 30
51 30 60 0 9 7 22 15 29 9 7 13 15 11 17 -3 3 3 13 12 24 18 19 58 94 88 167
10 23 21 42 26 42 4 0 8 4 8 9 0 6 14 30 30 54 31 46 39 74 18 61 -7 -4 -8 -3
-4 4 4 7 -17 49 -48 96 -30 46 -52 86 -50 89 6 5 -83 164 -96 172 -6 4 -10 13
-10 21 0 9 -13 35 -30 59 -16 24 -30 51 -30 59 0 14 51 111 139 269 18 31 30
64 27 73 -3 8 -2 13 2 10 9 -5 45 38 42 50 -1 4 2 10 8 13 22 15 63 101 57
121 -4 11 -11 17 -17 14 -7 -4 -8 -2 -4 4 4 7 -6 31 -22 54 -16 24 -48 81 -71
128 -23 47 -50 94 -60 105 -21 24 -101 182 -101 200 0 6 13 32 30 56 16 24 30
49 30 56 0 7 14 35 30 63 17 28 27 57 24 63 -4 7 -4 9 1 5 4 -4 15 3 24 15 25
32 60 108 47 100 -6 -4 0 5 14 19 14 14 38 50 54 80 l29 55 -55 89 c-30 49
-58 99 -62 111 -4 11 -25 49 -47 83 -21 34 -52 89 -67 123 -37 81 -81 149 -91
142 -5 -2 -8 3 -7 13 1 16 -21 17 -295 20 l-295 2 -35 56 c-19 31 -53 86 -76
122 -24 37 -43 73 -43 80 0 8 -18 44 -40 82 -22 38 -40 76 -40 85 0 8 -7 18
-15 21 -8 4 -15 12 -15 19 0 6 -8 20 -19 29 -17 15 -48 17 -304 15 -245 -1
-289 1 -302 14 -8 9 -15 20 -15 24 0 10 -152 270 -170 291 -6 6 -8 12 -5 12 4
0 -3 13 -14 29 -12 16 -21 36 -21 45 0 9 -4 16 -10 16 -5 0 -19 18 -30 40
l-20 40 -297 2 -296 3 -47 90 c-42 79 -105 192 -166 293 -10 18 -25 30 -32 27
-7 -3 -10 0 -7 5 7 11 -17 61 -40 84 -14 14 -54 16 -298 16 l-282 0 -67 113
c-36 61 -72 126 -80 142 -7 17 -16 35 -21 40 -14 18 -75 119 -103 173 l-28 52
-327 0 -327 0 -23 -37z m608 -138 c9 -19 20 -35 25 -35 5 0 13 -12 18 -26 6
-15 14 -22 22 -18 7 4 8 3 4 -4 -8 -13 33 -94 44 -87 4 2 7 -1 7 -8 0 -7 21
-47 46 -90 26 -43 47 -81 47 -84 0 -3 7 -20 16 -39 15 -32 15 -36 0 -53 -9 -9
-16 -25 -16 -34 0 -9 -4 -17 -8 -17 -8 0 -106 -175 -103 -185 1 -3 -7 -14 -17
-23 -10 -9 -38 -50 -61 -89 l-42 -73 -244 0 -243 0 -46 78 c-25 42 -50 82 -56
89 -5 7 -15 24 -22 37 -6 14 -15 23 -21 19 -6 -3 -7 -1 -3 5 4 6 -14 45 -39
86 -25 41 -45 78 -45 82 0 4 -8 16 -17 26 -16 18 -16 21 0 47 9 16 17 34 17
41 0 6 38 74 85 151 47 77 85 142 85 144 0 3 14 25 32 50 l32 45 243 0 243 0
17 -35z m-892 -485 c6 0 32 -39 60 -88 27 -48 52 -89 55 -92 7 -5 24 -36 56
-102 10 -20 21 -35 26 -32 4 3 5 -3 1 -12 -4 -12 -3 -15 5 -10 8 4 10 2 6 -7
-3 -8 2 -22 11 -30 9 -9 21 -30 26 -47 10 -27 7 -38 -30 -100 -23 -39 -39 -75
-35 -82 4 -6 3 -8 -4 -4 -6 3 -15 -8 -22 -28 -6 -18 -26 -55 -45 -82 -19 -27
-35 -54 -35 -60 0 -6 -7 -17 -15 -24 -9 -7 -14 -19 -11 -27 3 -8 2 -12 -2 -9
-5 3 -16 -11 -25 -30 l-17 -35 -270 1 c-166 1 -268 5 -265 11 4 5 3 15 -2 22
-4 6 -8 17 -9 22 -5 25 -45 105 -77 153 -20 28 -39 61 -42 72 -4 11 -11 18
-16 15 -5 -3 -6 2 -2 11 4 12 3 15 -5 10 -8 -5 -10 -2 -6 8 3 9 1 16 -5 16 -6
0 -11 4 -11 10 0 5 -14 33 -31 62 -19 31 -27 54 -20 56 6 2 11 8 11 12 0 5 13
31 28 57 16 26 28 50 28 53 0 3 18 32 39 65 22 33 38 63 37 68 -1 4 2 7 7 7 4
0 23 35 41 78 19 42 37 82 41 87 6 8 268 10 524 5z m1815 -82 c19 -45 48 -102
65 -127 18 -25 47 -73 65 -106 18 -33 41 -74 51 -91 22 -36 20 -43 -33 -131
-40 -66 -45 -79 -26 -67 7 4 8 3 4 -5 -4 -6 -11 -9 -15 -7 -4 3 -21 -20 -37
-50 -16 -29 -32 -54 -35 -54 -8 0 -31 -52 -25 -57 3 -3 -2 -12 -10 -20 -8 -9
-18 -28 -21 -44 -3 -16 -11 -33 -18 -39 -7 -6 -113 -11 -265 -12 l-254 -3 -62
105 c-34 58 -88 156 -120 219 -32 62 -64 115 -70 118 -8 3 -3 18 15 46 16 23
41 67 56 97 16 30 33 64 39 75 5 11 30 53 54 92 24 41 40 78 36 84 -4 8 -3 9
4 5 7 -4 12 -2 12 4 0 6 10 21 23 33 22 22 26 22 278 19 l256 -3 33 -81z
m-1405 -419 c-5 -7 65 -9 228 -7 176 2 237 0 246 -9 6 -7 11 -15 11 -18 -1 -3
16 -35 36 -70 27 -46 41 -61 47 -52 6 8 7 6 3 -7 -7 -21 11 -49 27 -39 6 3 7
1 3 -5 -6 -10 7 -38 92 -192 33 -59 34 -48 -11 -138 -10 -19 -14 -39 -10 -44
4 -7 1 -8 -7 -3 -10 6 -12 4 -7 -9 4 -9 3 -15 -2 -12 -4 3 -18 -14 -31 -37
-13 -23 -32 -53 -42 -66 -11 -15 -16 -32 -13 -45 4 -14 3 -17 -3 -8 -6 9 -16
-1 -35 -35 -14 -27 -37 -60 -49 -75 l-23 -28 -240 -1 -240 -1 -32 44 c-18 23
-40 60 -49 80 -9 21 -21 35 -27 31 -6 -3 -7 -1 -4 4 4 6 -1 21 -11 34 -29 38
-112 187 -112 201 0 7 -7 21 -15 32 -13 17 -10 26 22 85 82 153 221 383 236
393 16 11 19 10 12 -3z m2245 -14 c12 -8 57 -89 70 -129 6 -19 20 -44 31 -57
11 -12 22 -34 26 -48 6 -26 70 -142 83 -151 24 -17 39 -97 16 -83 -6 4 -6 -1
-2 -13 4 -10 4 -15 0 -11 -7 6 -94 -137 -94 -155 0 -5 -11 -29 -25 -52 -14
-24 -23 -46 -20 -49 3 -4 2 -5 -2 -2 -4 3 -12 -7 -19 -23 -6 -16 -23 -47 -38
-70 l-26 -42 -263 0 -262 1 -32 53 c-18 30 -33 59 -33 65 0 6 -24 48 -54 93
-29 46 -56 94 -60 106 -4 12 -13 28 -19 35 -47 51 -55 103 -21 151 33 46 125
206 169 293 25 50 54 94 63 96 23 6 502 -2 512 -8z m-3507 -35 c13 -22 27 -37
31 -33 4 4 4 0 0 -10 -3 -10 -1 -17 5 -17 6 0 11 -9 11 -21 0 -21 17 -60 30
-69 4 -3 33 -50 65 -105 31 -55 64 -112 73 -126 15 -25 14 -29 -51 -141 -36
-64 -78 -133 -92 -153 -14 -21 -25 -44 -25 -52 0 -8 -16 -39 -36 -69 l-36 -54
-256 0 -257 1 -38 60 c-21 33 -40 67 -43 75 -15 48 -13 47 -32 33 -16 -13 -16
-12 -3 4 10 12 11 21 4 25 -6 4 -14 18 -18 32 -9 31 -104 198 -117 206 -5 3 1
20 14 37 40 55 98 154 98 169 0 8 11 29 25 48 14 19 25 38 25 42 0 5 18 42 41
83 l41 75 258 0 259 0 24 -40z m-907 -485 c4 -8 11 -12 17 -8 6 3 7 1 3 -5 -6
-11 48 -110 68 -124 6 -4 7 -8 2 -8 -5 0 -2 -8 6 -17 8 -10 30 -45 48 -78 19
-33 44 -73 56 -90 12 -16 29 -45 39 -64 18 -37 18 -37 -31 -132 -13 -25 -21
-49 -17 -53 3 -3 1 -6 -5 -6 -12 0 -58 -79 -54 -93 1 -5 -1 -6 -6 -3 -5 3 -15
-7 -23 -22 -7 -15 -29 -49 -47 -76 -18 -27 -30 -56 -28 -63 3 -8 1 -11 -4 -8
-5 3 -15 -4 -20 -17 l-11 -23 -257 6 c-141 3 -258 6 -260 7 -2 1 -1 6 2 10 3
5 -9 31 -27 58 -41 62 -79 127 -123 209 -18 36 -38 73 -43 83 -6 9 -18 34 -27
55 -15 35 -15 39 0 56 9 9 16 23 16 30 0 7 13 32 29 55 17 24 41 67 55 97 15
30 51 96 82 147 l56 92 249 0 c212 0 250 -2 255 -15z m1805 -72 c29 -49 56
-90 61 -93 4 -3 22 -37 39 -75 17 -39 44 -86 60 -106 58 -73 58 -78 0 -178
-28 -49 -50 -93 -49 -98 2 -4 -10 -25 -25 -45 -17 -22 -26 -42 -21 -50 4 -7 4
-10 -1 -6 -8 8 -37 -31 -80 -110 l-28 -52 -257 0 c-256 0 -257 0 -267 23 -12
25 -58 117 -80 160 -8 15 -31 51 -50 80 -19 29 -39 62 -44 75 -5 14 -14 20
-21 16 -7 -4 -8 -3 -4 5 4 6 -4 31 -17 54 l-25 43 40 59 c42 64 124 199 147
243 29 55 32 63 25 74 -5 7 -3 8 5 4 8 -5 11 -3 10 5 -2 8 3 24 11 37 15 22
16 22 267 22 l252 0 52 -87z m1750 30 c14 -32 31 -71 37 -86 8 -18 17 -26 25
-21 6 4 9 4 5 -1 -10 -11 31 -87 42 -80 5 3 8 0 5 -7 -3 -7 20 -51 50 -98 30
-47 55 -90 55 -97 0 -14 -105 -199 -127 -225 -8 -9 -12 -22 -7 -29 4 -7 3 -10
-3 -6 -10 6 -50 -67 -87 -155 l-15 -38 -258 0 -258 0 -33 60 c-21 39 -37 58
-45 54 -7 -4 -9 -4 -5 1 7 8 -32 87 -58 116 -8 8 -14 21 -14 29 0 7 -22 52
-50 100 -27 48 -50 92 -50 97 0 6 9 22 21 37 11 14 17 31 13 38 -4 7 -4 10 1
6 9 -8 42 31 37 45 -1 4 2 7 7 7 5 0 14 14 20 31 9 27 39 79 148 257 13 22 15
22 266 22 l253 0 25 -57z m1765 -10 c40 -74 95 -156 106 -161 4 -2 5 -9 3 -15
-3 -7 6 -30 20 -52 13 -22 32 -56 42 -75 9 -19 24 -43 32 -53 17 -20 17 -18
-81 -205 -21 -40 -35 -78 -32 -84 4 -7 3 -8 -4 -4 -6 3 -16 -3 -22 -14 -6 -11
-8 -20 -5 -20 3 0 -5 -12 -18 -26 -13 -14 -35 -47 -48 -74 l-24 -50 -252 0
-253 0 -31 55 c-17 30 -35 55 -40 55 -5 0 -9 6 -9 13 0 6 -15 34 -33 61 -47
72 -60 94 -94 161 -60 117 -58 108 -30 159 14 26 20 44 14 40 -7 -3 -2 3 9 13
20 17 73 100 173 271 l42 72 249 0 248 0 38 -67z m-4386 -539 c25 -48 58 -107
75 -133 16 -26 39 -63 49 -82 10 -19 33 -54 49 -79 17 -25 30 -53 29 -63 -1
-20 -98 -192 -124 -221 -10 -10 -15 -23 -12 -28 3 -4 1 -8 -3 -8 -9 0 -45 -56
-42 -66 1 -3 -13 -32 -31 -65 l-34 -59 -268 0 c-163 0 -268 4 -268 9 0 6 -16
36 -35 68 -19 32 -35 66 -35 75 0 9 -4 18 -9 20 -5 2 -21 28 -36 58 -15 30
-46 84 -67 120 -52 85 -55 107 -24 149 14 19 23 39 19 44 -3 6 -2 7 4 4 5 -3
25 24 44 61 19 37 61 117 93 177 l59 110 262 -3 261 -3 44 -85z m-1785 31 c17
-30 33 -55 38 -55 4 0 7 -5 7 -10 0 -6 11 -27 24 -48 13 -20 45 -75 70 -122
25 -47 50 -84 55 -83 6 2 8 -4 5 -12 -4 -8 -2 -15 4 -15 23 0 2 -88 -37 -157
-23 -40 -41 -75 -41 -78 0 -4 -13 -26 -30 -50 -16 -24 -30 -46 -30 -49 0 -2
-21 -39 -47 -81 l-48 -76 -256 -2 -257 -2 -25 50 c-13 28 -30 62 -37 77 -7 15
-16 25 -20 23 -4 -3 -7 3 -6 13 0 9 -5 16 -12 14 -8 -1 -11 2 -8 7 3 5 -12 35
-34 67 -22 33 -40 64 -40 71 0 12 -44 97 -62 120 -7 8 -3 22 11 41 11 16 17
33 13 37 -4 5 -2 5 4 2 7 -4 18 9 28 34 10 23 30 61 46 85 17 23 30 46 30 50
0 4 10 21 23 38 13 17 38 61 56 99 l32 67 257 0 258 0 29 -55z m3348 48 c-68
-2 -178 -2 -245 0 -68 1 -13 3 122 3 135 0 190 -2 123 -3z m1930 -25 c51 -97
64 -118 72 -111 4 5 5 3 1 -4 -8 -15 28 -76 39 -65 5 4 5 2 1 -5 -8 -14 25
-81 93 -187 24 -37 25 -39 8 -68 -9 -16 -14 -35 -10 -40 3 -6 2 -8 -4 -5 -9 6
-38 -44 -164 -282 l-45 -86 -261 -3 -261 -2 -36 59 c-20 32 -36 64 -36 70 0 7
-17 38 -38 69 -65 97 -142 232 -142 250 0 10 7 27 15 38 8 12 12 24 10 28 -3
3 -2 4 2 1 3 -3 18 14 31 37 14 24 39 66 57 93 18 28 54 91 80 140 26 50 49
93 52 98 2 4 120 7 262 7 l257 0 17 -32z m1776 -15 c12 -27 22 -52 22 -58 0
-5 8 -19 18 -30 11 -11 28 -38 39 -60 11 -22 32 -55 46 -74 14 -19 26 -42 26
-51 0 -10 13 -35 29 -57 16 -23 31 -47 32 -54 3 -18 -76 -184 -107 -226 -13
-17 -24 -35 -24 -38 0 -3 -11 -21 -24 -38 -14 -18 -32 -54 -41 -81 -9 -27 -23
-55 -30 -63 -11 -11 -67 -13 -277 -11 l-263 3 -40 70 c-23 39 -55 92 -73 119
-18 28 -32 54 -32 59 0 5 -17 39 -39 75 -57 99 -58 115 -15 197 87 165 103
193 142 257 23 37 42 71 42 76 0 29 29 32 285 32 l262 0 22 -47z m-3455 -139
c3 -8 2 -12 -4 -9 -6 3 -10 10 -10 16 0 14 7 11 14 -7z m-741 -59 c-3 -9 -8
-14 -10 -11 -3 3 -2 9 2 15 9 16 15 13 8 -4z m-63 -305 c11 -22 18 -40 15 -40
-2 0 -14 18 -25 40 -11 22 -18 40 -15 40 2 0 14 -18 25 -40z m-1932 -1 c36
-64 99 -148 107 -141 5 4 5 2 2 -4 -4 -7 16 -49 43 -95 27 -46 59 -104 70
-128 l20 -43 -35 -73 c-19 -41 -46 -86 -59 -102 -40 -48 -137 -224 -130 -236
4 -7 4 -9 -1 -5 -4 4 -14 1 -22 -7 -12 -12 -59 -15 -262 -15 -224 0 -249 2
-263 18 -16 18 -128 207 -128 216 0 11 -67 105 -72 101 -3 -3 -5 8 -6 24 0 16
-8 41 -17 55 -16 24 -15 27 30 113 26 48 51 92 56 98 5 5 9 16 9 24 0 8 21 47
48 86 26 38 56 87 67 108 l20 37 253 0 253 0 17 -31z m5307 -29 c20 -33 41
-58 46 -55 5 4 6 0 4 -8 -3 -7 8 -31 25 -52 16 -21 30 -45 30 -54 1 -25 46
-92 56 -83 5 4 6 3 2 -2 -4 -5 2 -24 13 -43 11 -18 18 -33 15 -33 -4 0 1 -11
9 -24 14 -21 14 -28 4 -48 -8 -13 -18 -36 -24 -53 -6 -16 -24 -50 -40 -75 -16
-25 -30 -47 -30 -50 -1 -11 -129 -226 -139 -232 -6 -4 -124 -8 -263 -8 l-252
0 -22 40 c-12 21 -27 36 -32 33 -6 -3 -7 -1 -3 5 13 22 -132 250 -150 234 -4
-4 -4 -2 0 5 3 6 -6 37 -20 68 l-27 56 26 50 c14 28 23 58 20 67 -4 13 -3 14
5 4 7 -10 18 2 45 50 19 35 60 101 91 148 31 46 58 92 62 102 5 17 23 18 259
18 l254 0 36 -60z m-2465 40 c0 -5 -5 -10 -11 -10 -5 0 -7 5 -4 10 3 6 8 10
11 10 2 0 4 -4 4 -10z m835 -270 c9 -16 13 -30 11 -30 -3 0 -12 14 -21 30 -9
17 -13 30 -11 30 3 0 12 -13 21 -30z m-2615 -45 c0 -8 -4 -15 -10 -15 -5 0 -7
7 -4 15 4 8 8 15 10 15 2 0 4 -7 4 -15z m1583 0 c-3 -9 -8 -14 -10 -11 -3 3
-2 9 2 15 9 16 15 13 8 -4z m-669 -61 c3 -8 2 -12 -4 -9 -6 3 -10 10 -10 16 0
14 7 11 14 -7z m-2843 -156 c12 -24 29 -52 38 -63 27 -31 91 -145 91 -161 0
-8 5 -14 10 -14 6 0 9 -4 8 -8 -2 -5 12 -33 31 -62 41 -64 47 -129 16 -176
-10 -16 -19 -31 -18 -34 0 -3 -6 -9 -13 -15 -7 -5 -36 -55 -65 -110 -28 -55
-58 -107 -65 -116 -8 -8 -14 -21 -14 -28 0 -6 -6 -14 -14 -17 -8 -3 -16 -14
-19 -24 -5 -18 -19 -20 -265 -22 -251 -3 -261 -2 -273 17 -7 11 -34 62 -61
113 -27 51 -61 112 -76 135 -14 23 -39 66 -54 96 -16 30 -33 60 -38 66 -7 9
-3 28 15 63 14 28 30 54 35 57 6 3 10 13 10 21 0 17 85 167 117 207 13 16 23
33 23 39 0 6 9 26 21 44 l21 34 259 0 259 0 21 -42z m1607 35 c-71 -2 -185 -2
-255 0 -71 1 -13 3 127 3 140 0 198 -2 128 -3z m1911 -48 c17 -30 35 -55 40
-55 4 0 16 -18 26 -40 10 -22 21 -40 25 -40 5 0 11 -12 15 -27 5 -22 8 -24 17
-12 8 11 9 11 4 -3 -6 -21 32 -91 45 -82 5 3 6 -3 2 -12 -5 -13 -3 -15 7 -9 8
5 11 4 7 -3 -4 -5 5 -33 19 -60 l26 -50 -35 -70 c-20 -39 -32 -74 -29 -78 4
-4 2 -4 -4 -1 -7 4 -24 -12 -41 -41 -15 -26 -34 -56 -41 -67 -7 -11 -18 -31
-24 -45 -7 -14 -30 -51 -51 -82 l-40 -58 -241 0 c-218 0 -243 2 -257 18 -8 9
-45 71 -83 137 -38 66 -82 136 -97 155 -15 19 -37 58 -48 85 l-21 50 20 39
c10 21 17 44 13 50 -3 6 -3 8 2 4 8 -8 55 63 89 133 9 19 30 52 46 74 16 22
42 64 59 93 l31 52 244 0 244 0 31 -55z m1594 48 c-68 -2 -178 -2 -245 0 -68
1 -13 3 122 3 135 0 190 -2 123 -3z m1946 -47 c14 -28 31 -55 36 -61 6 -7 28
-44 49 -84 28 -51 42 -68 49 -59 6 9 7 8 3 -5 -6 -20 5 -45 59 -135 23 -38 25
-47 15 -77 -6 -19 -15 -35 -20 -35 -8 0 -27 -44 -19 -46 2 0 -3 -8 -11 -17
-32 -35 -40 -47 -33 -47 4 0 3 -4 -2 -8 -10 -7 -73 -116 -125 -214 l-25 -48
-237 -1 c-131 -1 -244 -2 -250 -3 -28 -5 -50 19 -105 112 -31 53 -61 100 -66
103 -5 3 -8 8 -7 10 4 9 -20 58 -53 108 -45 68 -54 114 -32 169 10 23 21 42
26 42 5 0 6 8 2 18 -3 9 -2 14 2 9 5 -4 29 34 55 85 44 89 87 159 102 166 4 2
4 10 1 19 -4 10 -2 14 4 10 5 -4 15 5 21 18 l12 25 261 -2 262 -3 26 -49z
m-1769 0 c0 -12 -5 -7 -19 24 -11 24 -11 24 3 6 9 -11 16 -24 16 -30z m-801
-118 c-11 -21 -22 -38 -24 -38 -3 0 2 14 10 30 9 17 14 34 11 39 -3 4 1 8 9 8
11 0 9 -9 -6 -39z m1002 -315 c-11 -21 -20 -35 -21 -31 0 12 33 78 38 74 2 -2
-6 -21 -17 -43z m-4625 -44 c8 -6 14 -18 14 -25 0 -8 9 -19 20 -26 11 -7 20
-17 20 -21 0 -5 16 -36 36 -70 20 -34 50 -87 67 -117 17 -30 34 -57 38 -60 4
-3 17 -27 29 -54 25 -59 21 -81 -25 -156 -19 -30 -40 -66 -47 -80 -7 -14 -15
-27 -19 -30 -3 -3 -14 -21 -24 -40 -9 -19 -40 -72 -68 -117 l-50 -83 -258 0
c-249 0 -258 1 -264 20 -3 11 -11 20 -17 20 -6 0 -9 3 -5 6 3 3 -3 16 -14 27
-11 12 -41 65 -68 119 -26 54 -51 96 -54 93 -4 -3 -5 -2 -3 1 3 3 -5 23 -17
43 -13 20 -31 56 -42 80 -18 41 -18 45 -2 73 9 16 17 38 17 49 0 10 4 19 9 19
15 0 74 109 74 136 0 13 3 22 6 19 4 -2 21 22 39 54 18 32 38 64 46 70 8 6 19
24 25 39 l11 27 256 -2 c176 -2 260 -6 270 -14z m1085 -2 c-10 -9 -11 -8 -5 6
3 10 9 15 12 12 3 -3 0 -11 -7 -18z m678 -9 c61 -96 78 -118 86 -111 4 5 5 3
1 -4 -3 -6 7 -35 24 -63 16 -28 30 -57 30 -64 0 -22 61 -106 72 -99 7 3 8 1 4
-6 -4 -6 1 -27 12 -46 18 -29 19 -35 6 -46 -8 -6 -14 -18 -14 -25 0 -8 -5 -14
-11 -14 -6 0 -8 -7 -5 -17 4 -10 4 -14 0 -11 -10 10 -56 -61 -48 -74 4 -7 2
-8 -4 -4 -7 4 -12 2 -12 -5 0 -7 -18 -43 -40 -81 -22 -39 -37 -75 -33 -80 3
-6 1 -8 -5 -4 -6 3 -13 -2 -17 -13 -3 -10 -15 -29 -26 -42 -11 -12 -17 -29
-15 -36 3 -7 2 -12 -2 -11 -4 1 -14 -2 -22 -6 -9 -3 -125 -5 -260 -4 l-244 3
-27 45 c-15 25 -28 51 -28 59 -1 12 -46 93 -127 227 -11 19 -24 32 -27 29 -4
-3 -5 -2 -3 1 3 3 -6 23 -19 44 l-23 37 30 54 c17 30 34 56 38 59 4 3 24 37
45 75 21 39 49 87 62 108 14 22 22 41 19 44 -2 3 4 15 15 26 11 12 18 26 16
31 -2 5 5 18 15 28 16 16 43 18 265 21 137 1 249 3 250 5 0 1 10 -13 22 -30z
m1775 -13 c9 -19 21 -37 26 -40 6 -3 10 -15 10 -26 0 -10 9 -28 20 -39 11 -11
17 -20 14 -20 -3 0 5 -18 17 -40 13 -22 26 -40 30 -40 4 0 9 -10 13 -22 3 -13
26 -54 51 -93 24 -38 45 -76 45 -83 0 -7 -8 -27 -17 -45 -9 -18 -16 -36 -15
-40 1 -5 -1 -6 -6 -3 -9 5 -37 -42 -34 -56 1 -5 -2 -8 -8 -8 -15 0 -82 -128
-74 -141 4 -7 3 -9 -3 -6 -5 4 -16 -6 -23 -21 -7 -15 -16 -35 -22 -45 -5 -10
-6 -23 -2 -30 4 -7 3 -9 -1 -4 -5 4 -14 -6 -21 -23 l-13 -30 -254 0 -254 0
-24 34 c-13 19 -28 32 -33 29 -5 -3 -6 -1 -2 5 7 11 -83 174 -93 167 -3 -1 -7
8 -7 21 -1 13 -25 59 -53 103 -28 44 -51 85 -51 90 0 6 17 36 37 68 56 89 143
264 136 276 -3 5 -2 7 4 4 11 -7 48 32 65 69 l11 24 257 0 258 0 16 -35z
m1746 20 c0 -9 11 -27 25 -41 14 -14 25 -29 25 -34 0 -4 3 -10 8 -12 4 -1 27
-43 51 -93 25 -49 57 -109 73 -132 15 -23 28 -45 28 -48 0 -4 7 -22 15 -39 15
-32 15 -35 -20 -95 -19 -35 -32 -68 -28 -74 3 -6 1 -7 -5 -3 -13 8 -46 -50
-37 -64 3 -6 2 -10 -2 -10 -5 0 -22 -26 -38 -57 -17 -32 -32 -60 -36 -63 -3
-3 -20 -29 -39 -57 l-33 -53 -249 0 c-211 0 -249 2 -254 15 -4 8 -11 12 -17 8
-6 -3 -7 -1 -3 6 4 6 2 18 -4 26 -14 16 -80 125 -80 131 0 2 -28 50 -63 107
-97 159 -93 148 -67 203 12 26 32 62 45 78 12 17 46 74 75 126 29 52 61 105
72 117 12 12 17 27 13 34 -6 8 -4 10 4 5 8 -5 14 0 18 13 5 21 10 21 264 21
227 0 259 -2 259 -15z m-5026 -153 c3 -5 -1 -9 -9 -9 -8 0 -12 4 -9 9 3 4 7 8
9 8 2 0 6 -4 9 -8z m37 -79 c13 -16 12 -17 -3 -4 -10 7 -18 15 -18 17 0 8 8 3
21 -13z m29 -58 c0 -5 -5 -3 -10 5 -5 8 -10 20 -10 25 0 6 5 3 10 -5 5 -8 10
-19 10 -25z m422 -62 c-73 -2 -190 -2 -260 0 -70 1 -10 3 133 3 143 0 200 -2
127 -3z m3531 0 c-73 -2 -193 -2 -265 0 -73 1 -14 3 132 3 146 0 205 -2 133
-3z m-5136 -195 c69 -108 127 -212 128 -231 1 -9 11 -27 22 -40 11 -12 30 -43
42 -69 23 -49 22 -66 -5 -120 -8 -15 -13 -29 -12 -30 1 -2 -10 -16 -25 -32
-15 -16 -27 -35 -27 -42 0 -12 -61 -122 -128 -232 l-27 -44 -255 2 c-140 0
-258 4 -261 8 -4 4 -22 36 -42 72 -90 168 -188 344 -197 355 -8 9 -8 15 0 20
6 4 9 14 6 22 -3 8 -2 12 3 9 5 -3 19 16 32 42 13 26 52 95 87 153 34 59 62
114 62 122 0 8 3 17 8 19 4 2 15 17 24 33 l17 30 253 5 c139 3 253 7 254 8 1
1 19 -26 41 -60z m5292 -2 c22 -35 41 -69 41 -75 0 -5 14 -33 30 -61 17 -28
30 -55 30 -61 0 -24 54 -101 65 -91 5 4 5 2 1 -5 -4 -7 5 -31 20 -54 22 -35
24 -46 15 -61 -6 -10 -9 -24 -5 -30 5 -7 2 -8 -6 -3 -10 6 -12 4 -6 -11 4 -10
4 -15 0 -11 -9 8 -72 -80 -81 -113 -3 -14 -19 -46 -35 -73 -15 -26 -28 -54
-28 -60 0 -7 -14 -32 -31 -55 -17 -23 -28 -42 -24 -42 3 0 0 -7 -9 -15 -13
-13 -53 -15 -273 -13 l-258 3 -14 30 c-8 16 -20 36 -27 42 -7 7 -16 23 -20 36
-7 22 -101 193 -117 212 -4 6 -23 35 -41 65 l-32 55 38 64 c20 35 34 69 31 74
-3 6 -1 7 5 4 16 -11 148 230 136 247 -2 3 -1 4 3 1 3 -3 15 7 25 22 l18 28
247 5 c137 3 251 7 254 8 3 1 25 -27 48 -62z m1764 4 c18 -33 37 -57 42 -53 4
5 5 3 1 -4 -4 -7 23 -66 61 -133 37 -67 78 -140 91 -163 l22 -42 -86 -155
c-47 -85 -103 -186 -124 -225 -20 -38 -40 -69 -44 -67 -3 1 -122 2 -263 2
l-258 0 -21 38 c-11 20 -26 36 -33 34 -7 -1 -10 2 -6 8 4 6 -3 25 -13 43 -18
28 -64 115 -140 259 -31 60 -26 94 28 177 22 34 40 67 40 74 0 7 25 53 55 102
30 50 64 107 75 128 l20 37 260 0 259 0 34 -60z m-5563 43 c-133 -7 -278 -7
-273 0 2 4 77 6 166 5 89 -1 137 -3 107 -5z m2015 -28 c90 -157 144 -247 172
-290 18 -27 33 -56 33 -63 0 -7 7 -23 15 -35 13 -20 12 -27 -12 -77 -14 -30
-30 -58 -36 -61 -5 -4 -6 -12 -2 -19 5 -9 4 -11 -3 -6 -7 4 -17 -4 -24 -21 -7
-15 -20 -40 -31 -55 -10 -16 -15 -34 -11 -40 4 -7 3 -10 -1 -5 -5 4 -20 -12
-33 -35 -14 -24 -40 -66 -59 -95 l-34 -52 -246 -3 -245 -3 -9 23 c-5 13 -13
21 -18 17 -5 -3 -13 0 -17 6 -4 8 -3 9 4 5 14 -8 15 -4 6 18 -3 9 -12 16 -18
16 -7 0 -13 6 -13 13 0 11 -95 183 -126 228 -8 10 -17 16 -21 11 -4 -4 -7 -2
-5 3 4 15 -12 67 -27 89 -11 16 -11 24 0 45 17 33 33 73 34 85 0 5 7 13 15 18
22 12 78 118 70 132 -3 6 -2 8 2 3 8 -7 58 68 102 151 l17 32 250 0 251 0 20
-35z m-1760 5 c3 -5 1 -10 -4 -10 -6 0 -11 5 -11 10 0 6 2 10 4 10 3 0 8 -4
11 -10z m-714 -317 c-12 -20 -14 -14 -5 12 4 9 9 14 11 11 3 -2 0 -13 -6 -23z
m908 -23 c11 -24 11 -24 -3 -6 -9 11 -16 24 -16 30 0 12 5 7 19 -24z m4257
-251 c6 -11 14 -16 19 -11 5 4 5 1 1 -6 -5 -8 -2 -21 7 -30 8 -9 28 -46 45
-82 17 -36 41 -81 54 -101 13 -19 31 -51 42 -72 18 -34 18 -38 2 -61 -9 -14
-16 -31 -16 -39 0 -7 -12 -29 -26 -48 -14 -19 -43 -70 -64 -114 -21 -44 -50
-97 -63 -117 -14 -20 -22 -40 -19 -44 4 -4 2 -4 -4 -1 -6 3 -18 -7 -28 -24
l-17 -29 -249 0 c-158 0 -251 4 -255 10 -4 6 -11 8 -16 5 -5 -3 -6 0 -3 8 3 8
-6 27 -19 43 -13 16 -48 71 -78 123 -30 51 -62 105 -71 120 -16 23 -30 51 -61
119 -8 16 -7 26 1 34 7 7 12 18 12 25 0 7 17 37 37 65 20 29 36 58 36 65 0 7
3 11 5 8 9 -9 82 136 75 148 -3 7 -3 9 2 5 4 -4 25 18 46 50 l38 57 248 5 248
5 30 -49 c17 -27 35 -57 41 -67z m-5319 49 c21 -35 61 -102 88 -150 27 -47 54
-84 60 -81 5 4 7 3 3 -1 -4 -5 3 -25 16 -45 44 -69 60 -111 47 -124 -6 -6 -11
-21 -11 -32 0 -12 -8 -30 -18 -41 -10 -10 -43 -64 -74 -119 -31 -55 -78 -130
-104 -167 l-48 -68 -248 0 -247 0 -16 29 c-8 16 -26 38 -40 49 -14 12 -25 23
-24 27 3 13 -105 214 -113 209 -4 -3 -5 1 -2 9 3 8 -2 20 -11 27 -8 7 -15 19
-15 27 0 7 -7 24 -15 37 -14 22 -14 27 2 62 10 22 30 57 45 80 15 23 38 65 51
95 13 30 40 81 60 113 20 33 33 64 30 69 -3 6 -2 7 4 4 5 -3 17 7 27 24 l17
29 249 0 248 0 39 -62z m1748 22 c21 -30 31 -37 37 -28 6 9 8 7 4 -7 -4 -13
11 -49 45 -105 28 -47 52 -89 53 -95 1 -5 8 -21 16 -35 15 -26 20 -34 57 -91
13 -19 23 -39 23 -44 0 -6 -16 -35 -35 -65 -19 -30 -42 -71 -51 -90 -39 -83
-48 -106 -47 -117 0 -7 -3 -11 -7 -8 -4 2 -17 -14 -29 -36 -13 -22 -33 -51
-47 -66 -13 -14 -26 -34 -29 -44 -6 -18 -20 -19 -266 -19 l-259 0 -9 23 c-18
44 -22 52 -34 72 -7 11 -39 68 -71 125 -33 58 -69 119 -82 135 -12 17 -28 44
-37 60 -14 29 -14 32 17 80 106 163 138 220 191 338 l26 57 253 0 253 0 28
-40z m1779 -13 c14 -30 26 -57 26 -61 0 -4 17 -37 38 -73 20 -35 43 -74 49
-86 7 -12 19 -20 25 -19 7 2 10 0 6 -3 -8 -9 10 -47 51 -107 27 -40 28 -44 15
-70 -8 -15 -15 -31 -16 -35 -1 -5 -8 -14 -15 -21 -7 -8 -10 -18 -7 -24 4 -7 2
-8 -5 -4 -6 4 -14 0 -18 -11 -4 -10 -32 -61 -63 -113 -31 -52 -59 -102 -63
-110 -4 -8 -11 -22 -16 -30 -5 -8 -14 -27 -20 -42 l-11 -28 -258 0 -258 0 -17
36 c-10 19 -22 32 -27 29 -6 -4 -9 -3 -8 2 4 16 -64 123 -74 116 -7 -3 -8 -1
-4 6 4 6 1 23 -8 36 -9 13 -16 30 -16 36 0 7 -22 47 -50 90 -27 43 -50 83 -50
89 0 6 23 47 50 91 28 44 50 83 50 86 0 9 100 183 132 231 l29 42 253 0 254 0
26 -53z m-3294 -117 c6 -11 8 -20 6 -20 -3 0 -10 9 -16 20 -6 11 -8 20 -6 20
3 0 10 -9 16 -20z m533 -207 c-35 -2 -91 -2 -125 0 -35 2 -7 3 62 3 69 0 97
-1 63 -3z m-1664 -160 c9 -10 48 -74 86 -143 38 -69 72 -127 75 -130 30 -26
89 -180 69 -180 -5 0 -9 -6 -9 -14 0 -7 -8 -24 -19 -37 -10 -13 -20 -28 -21
-34 -2 -5 -10 -20 -18 -33 -8 -12 -12 -25 -9 -28 3 -4 -10 -29 -29 -56 -18
-28 -31 -55 -27 -61 3 -6 1 -7 -5 -3 -7 4 -12 1 -12 -9 0 -8 -6 -18 -14 -21
-8 -3 -27 -32 -43 -65 l-28 -59 -260 0 c-243 0 -262 1 -277 19 -9 10 -19 28
-23 40 -3 12 -11 21 -16 21 -6 0 -7 5 -4 10 4 6 -7 27 -23 48 -16 20 -30 41
-30 45 0 5 -16 36 -36 69 -20 34 -36 65 -36 71 0 5 -16 34 -36 64 -26 39 -33
59 -28 76 4 12 7 24 7 27 1 3 9 14 19 24 10 11 18 24 18 29 0 5 14 29 30 54
17 24 27 49 24 55 -4 6 -2 8 4 4 6 -3 14 4 18 16 4 13 11 26 16 29 5 3 10 13
12 22 1 9 9 24 18 34 16 18 34 62 30 76 -1 4 3 7 8 7 6 0 10 5 10 11 0 7 8 19
19 28 16 14 51 16 271 14 228 -2 254 -4 269 -20z m1656 10 c-225 -7 -425 -7
-425 0 0 4 116 6 258 5 141 -1 217 -3 167 -5z m1853 -9 c5 -9 12 -14 17 -12 4
1 9 -5 11 -15 1 -10 10 -29 18 -42 9 -13 28 -46 42 -72 15 -26 51 -84 80 -129
30 -44 54 -87 54 -96 0 -9 7 -21 15 -28 8 -7 14 -25 13 -41 -1 -15 -4 -26 -7
-23 -8 8 -41 -68 -34 -80 3 -6 3 -8 -2 -4 -12 11 -38 -29 -29 -45 4 -6 3 -9
-1 -4 -10 8 -106 -153 -99 -165 3 -5 0 -7 -7 -6 -6 2 -28 -23 -47 -54 l-34
-58 -243 0 -243 0 -37 65 c-20 36 -39 65 -44 65 -4 0 -14 12 -22 28 -7 15 -38
70 -69 123 -94 163 -94 163 -78 196 45 89 64 122 88 153 15 19 41 60 57 90 47
87 75 134 91 153 14 15 39 17 258 17 212 0 244 -2 252 -16z m1645 9 c-73 -2
-193 -2 -265 0 -73 1 -14 3 132 3 146 0 205 -2 133 -3z m1913 -28 c10 -19 22
-35 26 -35 4 0 5 -6 2 -14 -3 -7 21 -57 53 -110 32 -54 77 -132 99 -174 40
-74 41 -78 26 -107 -8 -16 -23 -41 -33 -54 -11 -13 -19 -29 -19 -37 0 -17
-101 -186 -120 -201 -8 -6 -12 -14 -8 -18 4 -4 -7 -29 -24 -56 l-30 -49 -256
0 -257 0 -77 125 c-43 68 -78 129 -78 134 0 13 -34 73 -62 111 -30 41 -28 102
6 165 41 77 169 299 189 328 l17 27 264 0 263 0 19 -35z m-5936 -175 c-6 -11
-13 -20 -16 -20 -2 0 0 9 6 20 6 11 13 20 16 20 2 0 0 -9 -6 -20z m4370 -190
c6 -11 8 -20 6 -20 -3 0 -10 9 -16 20 -6 11 -8 20 -6 20 3 0 10 -9 16 -20z
m-4503 -52 c-3 -8 -6 -5 -6 6 -1 11 2 17 5 13 3 -3 4 -12 1 -19z m4515 -10
c-8 -8 -9 -4 -5 13 4 13 8 18 11 10 2 -7 -1 -18 -6 -23z m710 -170 c34 -62 68
-120 73 -130 61 -103 75 -129 75 -138 0 -6 7 -21 16 -35 14 -22 13 -27 -27
-102 -23 -43 -48 -87 -55 -98 -8 -11 -14 -25 -14 -32 0 -11 -35 -70 -58 -98
-4 -5 -24 -38 -43 -73 l-36 -63 -254 0 -254 0 -34 63 c-19 35 -40 69 -47 76
-7 6 -16 21 -19 32 -3 11 -9 20 -13 20 -4 0 -20 25 -36 54 -16 30 -33 53 -37
51 -4 -3 -6 3 -5 13 0 9 -5 16 -12 14 -8 -1 -11 2 -7 7 3 6 -6 32 -21 58 l-26
49 26 57 c14 32 23 65 20 75 -5 13 -4 14 4 3 8 -11 15 -5 31 27 12 23 26 42
32 42 5 0 12 7 16 16 3 9 32 62 65 118 l58 101 253 5 c138 3 255 4 259 2 3 -1
35 -53 70 -114z m-5346 97 c4 -8 11 -12 17 -8 6 3 7 1 3 -5 -6 -11 18 -60 37
-73 5 -3 8 -8 7 -10 -5 -10 34 -78 42 -73 5 3 7 2 6 -3 -4 -14 13 -53 22 -53
5 0 19 -19 31 -42 12 -24 25 -45 28 -48 4 -3 17 -29 29 -58 21 -53 21 -54 3
-90 -30 -60 -114 -206 -125 -218 -6 -6 -33 -50 -61 -97 l-50 -87 -253 0 -253
0 -17 31 c-9 17 -41 67 -69 111 -29 44 -53 87 -53 95 0 8 -5 11 -12 7 -7 -4
-8 -3 -4 4 8 14 -24 73 -36 66 -4 -3 -5 1 -3 8 3 8 -3 23 -14 35 -11 11 -17
23 -14 26 3 3 -5 20 -17 36 -12 17 -17 31 -12 31 6 0 17 17 25 38 8 21 39 78
67 128 29 49 75 128 103 177 l50 87 259 0 c220 0 259 -2 264 -15z m1049 -45
c-9 -16 -18 -30 -21 -30 -2 0 2 14 11 30 9 17 18 30 21 30 2 0 -2 -13 -11 -30z
m1905 -50 c0 -5 -5 -10 -11 -10 -5 0 -7 5 -4 10 3 6 8 10 11 10 2 0 4 -4 4
-10z m-127 -215 c-3 -9 -8 -14 -10 -11 -3 3 -2 9 2 15 9 16 15 13 8 -4z
m-2090 -42 c-67 -2 -179 -2 -250 0 -70 1 -15 3 122 3 138 0 195 -2 128 -3z
m3529 0 c-73 -2 -190 -2 -260 0 -70 1 -10 3 133 3 143 0 200 -2 127 -3z
m-5124 -183 c13 -27 45 -83 73 -125 27 -42 49 -79 49 -83 0 -4 18 -38 40 -76
53 -90 58 -128 27 -186 -13 -25 -41 -76 -62 -115 -20 -38 -52 -92 -70 -120
-18 -27 -43 -70 -55 -95 -12 -25 -26 -47 -30 -50 -5 -3 -125 -4 -268 -2 l-259
3 -18 39 c-10 22 -21 37 -25 35 -5 -3 -6 5 -2 17 3 14 1 19 -6 14 -8 -4 -10
-2 -6 7 3 8 -3 22 -13 32 -9 10 -22 27 -28 39 -22 41 -40 71 -46 76 -4 3 -21
34 -38 70 -17 36 -38 76 -47 90 -16 24 -15 28 20 87 20 34 36 67 36 73 0 6 26
53 59 103 32 51 71 120 86 155 l28 62 266 0 266 -1 23 -49z m1745 13 c54 -86
61 -99 62 -114 1 -9 7 -22 13 -30 37 -43 162 -256 162 -275 0 -8 -16 -40 -35
-70 -20 -30 -32 -60 -29 -66 4 -7 2 -8 -4 -4 -11 6 -16 -6 -13 -26 0 -5 -3 -8
-9 -8 -12 0 -43 -49 -105 -165 -26 -49 -51 -94 -55 -100 -5 -6 -100 -9 -259
-7 l-251 3 -27 42 c-15 23 -39 66 -53 94 -15 29 -29 50 -32 47 -3 -3 -5 1 -4
8 2 19 -76 158 -86 152 -4 -3 -5 3 -1 12 5 13 3 15 -7 9 -9 -5 -11 -4 -6 3 4
6 -3 25 -16 42 -17 24 -20 35 -12 48 6 9 37 67 69 127 32 61 64 117 71 126 8
8 14 21 14 27 0 10 62 124 83 150 7 9 71 12 258 12 l249 0 23 -37z m1605 30
c-64 -2 -172 -2 -240 0 -68 1 -15 3 117 3 132 0 187 -2 123 -3z m1920 -5 c-2
-7 3 -12 10 -10 8 1 11 -2 7 -7 -3 -6 12 -43 33 -83 75 -139 110 -203 146
-262 41 -68 44 -87 17 -124 -10 -15 -29 -47 -42 -71 -13 -25 -40 -74 -60 -110
-20 -37 -54 -101 -75 -143 l-39 -77 -266 -1 -265 0 -38 73 c-74 140 -90 166
-99 160 -6 -4 -7 -1 -2 6 4 7 -1 22 -13 34 -11 12 -30 42 -42 67 -25 50 -55
92 -62 85 -2 -2 -4 5 -4 15 0 11 4 20 8 20 8 0 61 96 58 106 -1 4 2 10 7 13
11 7 123 179 123 188 0 4 15 35 33 70 l32 63 268 0 c208 0 266 -3 265 -12z
m1766 -25 c14 -21 32 -57 41 -80 10 -24 21 -43 27 -43 5 0 6 -4 3 -10 -3 -5
-2 -10 4 -10 5 0 13 -9 16 -20 3 -11 12 -26 19 -32 19 -21 56 -84 56 -98 0 -7
16 -37 36 -67 l35 -53 -36 -59 c-21 -33 -34 -64 -31 -69 3 -6 3 -12 -2 -14
-18 -7 -83 -119 -76 -131 4 -6 4 -9 -1 -5 -11 10 -57 -53 -51 -69 3 -7 2 -13
-2 -13 -5 0 -18 -20 -30 -45 l-22 -45 -258 0 -258 0 -38 70 c-22 42 -42 68
-48 64 -7 -5 -8 -2 -3 6 4 7 3 15 -2 19 -9 5 -57 91 -130 231 -23 44 -24 88
-3 115 25 31 89 168 84 177 -4 6 -3 8 3 5 13 -8 39 29 93 131 l44 82 253 0
253 0 24 -37z m-5119 -3 c9 -16 13 -30 11 -30 -3 0 -12 14 -21 30 -9 17 -13
30 -11 30 3 0 12 -13 21 -30z m1594 -16 c12 -19 16 -32 11 -29 -11 7 -43 65
-36 65 2 0 13 -16 25 -36z m1046 -4 c-9 -16 -18 -30 -21 -30 -2 0 2 14 11 30
9 17 18 30 21 30 2 0 -2 -13 -11 -30z m-86 -145 c-12 -19 -26 -38 -33 -42 -8
-5 -8 -3 0 8 5 8 18 26 27 42 25 40 30 33 6 -8z m-649 -85 c11 -22 18 -40 15
-40 -2 0 -14 18 -25 40 -11 22 -18 40 -15 40 2 0 14 -18 25 -40z m-1030 -60
c-6 -11 -13 -20 -16 -20 -2 0 0 9 6 20 6 11 13 20 16 20 2 0 0 -9 -6 -20z
m-1930 -192 c0 -7 16 -37 36 -67 20 -31 56 -87 81 -126 24 -38 63 -107 85
-153 l40 -83 -17 -37 c-9 -20 -27 -53 -39 -72 -13 -19 -63 -102 -112 -185 -49
-82 -92 -152 -95 -155 -4 -3 -119 -4 -257 -2 l-250 3 -12 29 c-7 16 -17 27
-23 23 -6 -3 -7 -1 -3 5 4 6 -16 48 -44 92 -27 45 -50 86 -50 91 0 12 -17 41
-52 93 -16 21 -28 46 -28 54 0 9 -7 23 -16 33 -14 15 -13 22 10 78 13 33 33
73 43 88 10 16 25 42 32 58 7 17 17 37 22 45 5 8 18 33 30 54 12 22 28 46 36
54 8 8 23 34 35 58 l20 44 247 2 c240 3 281 -1 281 -24z m1764 -17 c14 -27 32
-55 40 -63 7 -8 26 -37 40 -64 15 -27 35 -62 44 -79 112 -201 125 -228 104
-237 -13 -5 -92 -130 -92 -146 0 -8 -9 -26 -20 -42 -11 -15 -17 -30 -13 -34 3
-3 1 -6 -5 -6 -9 0 -37 -44 -84 -130 -38 -71 -12 -65 -292 -62 l-253 3 -13 27
c-27 59 -39 88 -45 109 -3 13 -12 29 -19 35 -7 7 -32 46 -55 87 -46 78 -81
133 -106 165 -13 18 -13 23 6 55 12 20 42 72 67 116 25 44 48 82 51 85 12 11
62 106 90 172 l20 48 253 3 c139 1 254 3 255 5 2 1 14 -20 27 -47z m1762 22
c7 -10 14 -25 14 -34 0 -9 9 -28 21 -43 11 -14 17 -26 14 -26 -7 0 44 -92 55
-100 7 -4 75 -122 121 -208 16 -31 17 -35 1 -51 -9 -10 -35 -49 -57 -86 -22
-37 -53 -88 -70 -114 -29 -45 -41 -68 -72 -141 -8 -19 -19 -43 -24 -53 -6 -10
-8 -21 -5 -25 2 -4 -113 -5 -256 -2 l-261 5 -59 95 c-32 52 -74 127 -93 167
-18 39 -42 76 -52 82 -10 6 -14 11 -10 11 10 0 -24 60 -34 60 -9 0 -18 38 -10
42 12 5 101 164 101 180 0 8 9 23 20 33 11 10 17 22 14 26 -3 5 -1 9 5 9 5 0
12 9 16 20 3 11 21 41 38 67 18 27 39 60 46 76 l14 27 255 0 c231 0 256 -2
268 -17z m1779 -38 c15 -30 32 -55 35 -55 4 0 10 -8 13 -17 4 -10 27 -54 51
-98 25 -44 55 -100 66 -125 12 -25 29 -59 38 -77 15 -30 15 -33 -2 -52 -10
-11 -16 -26 -14 -33 3 -7 -3 -20 -14 -29 -10 -9 -34 -50 -54 -90 -38 -79 -68
-133 -121 -216 l-33 -53 -253 0 -254 0 -14 28 c-25 49 -172 296 -196 328 -13
17 -23 37 -23 45 0 8 -5 20 -11 26 -14 14 4 69 46 138 17 28 36 61 43 75 7 14
32 57 56 95 25 39 57 91 72 118 l27 47 256 0 257 0 29 -55z m-2680 -315 c-4
-6 -97 -9 -253 -8 l-247 2 250 6 c138 3 251 7 253 8 2 1 0 -2 -3 -8z m65 -260
c24 -41 49 -80 55 -87 7 -6 18 -25 25 -42 7 -17 16 -29 20 -26 4 3 7 -3 6 -13
0 -9 5 -16 12 -14 8 1 11 -2 7 -8 -3 -5 4 -29 16 -52 50 -97 49 -87 21 -142
-14 -28 -25 -56 -25 -63 0 -7 -3 -11 -5 -8 -9 9 -33 -35 -26 -47 4 -6 3 -8 -3
-5 -5 3 -17 -10 -26 -29 -10 -19 -22 -40 -28 -47 -5 -7 -34 -54 -64 -106 l-53
-93 -243 1 c-135 1 -248 6 -254 11 -7 6 -16 6 -20 2 -5 -4 -5 -2 -1 5 8 15
-88 186 -98 175 -4 -4 -6 -2 -4 4 2 5 -14 39 -34 74 -21 34 -38 67 -38 72 0 5
-5 6 -12 2 -6 -4 -8 -3 -5 2 3 5 -5 30 -17 54 -20 39 -22 48 -11 70 17 33 32
73 33 84 0 5 5 12 10 15 5 3 25 32 43 64 19 32 41 69 49 82 8 13 35 58 59 99
l44 76 246 2 c283 3 247 16 321 -112z m1726 78 c16 -24 33 -46 37 -49 5 -3 9
-10 9 -15 1 -16 9 -39 24 -64 8 -14 26 -49 39 -77 14 -29 36 -71 50 -94 48
-76 64 -108 62 -128 0 -11 -5 -19 -10 -18 -10 2 -29 -30 -143 -248 -6 -11 -27
-51 -46 -90 l-36 -70 -260 -3 -260 -2 -28 47 c-16 27 -36 67 -46 91 -19 51
-37 74 -49 66 -5 -3 -6 3 -2 12 5 13 3 15 -7 9 -8 -5 -11 -4 -7 2 5 8 -23 63
-98 189 l-19 32 67 115 c37 64 78 133 92 153 14 20 25 45 25 54 0 10 9 29 21
44 11 14 17 31 13 37 -4 8 -3 9 4 5 6 -3 16 2 22 14 10 19 22 20 263 23 138 1
253 3 253 5 1 1 14 -17 30 -40z m-3526 10 c22 -35 50 -91 50 -101 0 -4 17 -34
38 -65 59 -87 142 -240 142 -260 0 -10 -12 -34 -26 -53 -14 -19 -37 -56 -51
-83 -13 -27 -42 -75 -64 -106 -21 -32 -39 -63 -39 -69 0 -13 -60 -123 -71
-131 -6 -4 -163 -5 -430 -1 l-86 1 -41 70 c-23 38 -42 76 -42 84 0 8 -6 21
-12 28 -7 8 -31 49 -53 93 -22 43 -53 98 -69 122 -33 50 -35 40 41 171 24 41
43 79 43 86 0 8 9 25 20 39 11 14 20 31 20 39 0 7 14 33 30 58 16 25 30 49 30
54 0 5 7 18 17 28 15 17 37 18 277 18 260 0 261 0 276 -22z m920 -584 c33 -55
75 -131 94 -169 19 -39 50 -94 69 -122 l35 -52 -22 -43 c-12 -24 -37 -66 -54
-94 -18 -28 -32 -56 -32 -62 0 -6 -14 -31 -31 -56 -17 -25 -27 -51 -23 -57 4
-7 3 -9 -4 -5 -6 3 -13 -3 -17 -14 -3 -11 -22 -45 -42 -75 l-36 -55 -261 6
c-183 5 -264 11 -273 19 -7 7 -10 14 -8 17 8 8 -82 173 -94 170 -7 -1 -10 2
-6 7 8 14 -49 103 -60 94 -4 -5 -5 -2 -1 5 7 11 -36 98 -54 112 -16 11 -15 36
1 50 9 8 36 51 60 95 23 44 62 109 86 145 23 36 43 70 43 77 0 6 8 26 17 45 9
18 19 40 23 48 6 13 48 16 261 20 140 3 258 2 262 -1 5 -4 35 -51 67 -105z
m1732 57 c47 -110 70 -151 81 -145 7 4 9 3 4 -1 -4 -5 -1 -18 7 -30 7 -11 37
-63 66 -115 29 -52 57 -98 62 -101 13 -8 10 -18 -14 -51 -11 -16 -16 -28 -11
-28 4 0 3 -4 -3 -8 -22 -15 -54 -80 -48 -98 4 -15 4 -16 -4 -5 -8 11 -12 10
-21 -8 -7 -12 -9 -27 -5 -33 4 -7 3 -8 -4 -4 -16 10 -90 -124 -105 -189 -4
-17 -23 -33 -43 -35 -10 -1 -128 -2 -262 -1 l-242 1 -19 30 c-10 16 -20 28
-23 25 -2 -3 -5 1 -5 8 0 16 -72 139 -87 149 -6 4 -11 11 -11 15 -2 26 -17 63
-25 58 -5 -3 -8 3 -8 12 1 10 -17 48 -40 85 -34 56 -39 69 -28 81 15 15 47 73
45 83 0 4 3 10 8 13 5 3 22 33 37 66 15 33 38 74 50 90 13 17 40 62 61 100 21
39 40 72 43 75 5 6 480 17 506 11 11 -2 27 -23 38 -50z m-886 -523 c14 -29 37
-67 50 -85 33 -44 121 -196 159 -273 14 -30 15 -40 4 -65 -7 -16 -13 -32 -14
-35 -4 -19 -163 -288 -176 -300 -3 -3 -16 -24 -29 -48 l-24 -42 -250 0 -251 0
-22 35 c-13 19 -23 39 -23 45 0 5 -4 10 -8 10 -5 0 -17 18 -27 40 -10 22 -22
40 -27 40 -4 0 -8 5 -8 11 0 7 -16 36 -36 66 -38 57 -104 195 -104 217 0 8 7
19 15 26 9 7 15 20 13 29 -2 8 6 25 17 37 11 12 31 42 43 66 37 70 59 108 74
126 20 23 70 112 64 112 -3 0 2 9 11 20 17 19 30 20 270 20 l253 0 26 -52z"/>
</g>
</svg>
