<?xml version="1.0" standalone="no"?>
<!DOCTYPE svg PUBLIC "-//W3C//DTD SVG 20010904//EN"
 "http://www.w3.org/TR/2001/REC-SVG-20010904/DTD/svg10.dtd">
<svg version="1.0" xmlns="http://www.w3.org/2000/svg"
 width="942.000000pt" height="942.000000pt" viewBox="0 0 942.000000 942.000000"
 preserveAspectRatio="xMidYMid meet">
<metadata>
Created by potrace 1.11, written by Peter Selinger 2001-2013
</metadata>
<g transform="translate(0.000000,942.000000) scale(0.100000,-0.100000)"
fill="#000000" stroke="none">
<path d="M4312 9384 c-7 -14 -33 -57 -58 -96 -26 -39 -62 -103 -81 -142 -20
-39 -45 -84 -57 -101 -21 -30 -56 -89 -78 -132 l-11 -23 -294 0 c-206 0 -293
-3 -293 -11 0 -6 -24 -48 -54 -92 -29 -45 -75 -119 -101 -165 -27 -45 -52 -85
-57 -88 -4 -3 -8 -12 -8 -20 0 -8 -17 -44 -37 -79 l-37 -65 -298 0 c-209 0
-298 -3 -298 -11 0 -6 -9 -23 -20 -39 -11 -15 -35 -56 -53 -91 -50 -94 -70
-127 -113 -195 -22 -33 -53 -86 -69 -117 l-30 -57 -292 0 -291 0 -31 -39 c-17
-21 -31 -44 -31 -49 0 -6 -14 -35 -31 -64 -17 -29 -42 -75 -55 -103 -21 -44
-44 -84 -129 -222 l-20 -33 -295 -2 -295 -3 -52 -85 c-28 -47 -52 -91 -52 -98
-1 -7 -20 -43 -43 -80 -23 -37 -56 -95 -74 -130 -18 -35 -49 -89 -69 -121 -19
-32 -35 -63 -35 -68 0 -5 25 -51 55 -102 30 -51 55 -97 55 -101 0 -4 12 -25
27 -46 22 -34 67 -114 129 -231 17 -32 17 -33 -26 -120 -25 -48 -52 -95 -61
-104 -10 -10 -34 -53 -55 -96 -20 -43 -53 -103 -72 -133 -19 -30 -40 -64 -47
-74 -10 -17 -6 -29 21 -78 18 -32 44 -73 58 -91 14 -19 26 -39 26 -45 0 -6 14
-34 30 -62 17 -29 49 -86 71 -128 23 -42 49 -89 57 -104 19 -32 27 -13 -106
-246 -29 -51 -52 -97 -52 -103 0 -6 -15 -34 -34 -62 -18 -29 -44 -70 -57 -93
l-23 -41 24 -39 c13 -21 38 -62 57 -91 18 -28 33 -56 33 -63 0 -6 20 -46 45
-88 25 -42 49 -84 54 -92 4 -8 16 -28 25 -45 50 -88 51 -94 34 -123 -8 -15
-34 -62 -57 -104 -22 -42 -54 -99 -71 -128 -16 -28 -30 -57 -30 -64 0 -7 -8
-21 -18 -32 -25 -26 -92 -142 -92 -158 0 -7 10 -28 23 -47 39 -58 87 -146 87
-160 0 -8 18 -39 39 -69 59 -83 134 -236 126 -259 -3 -10 -15 -29 -26 -42 -11
-12 -22 -34 -26 -48 -3 -13 -30 -63 -60 -110 -29 -47 -53 -88 -53 -92 0 -4
-27 -52 -59 -107 l-59 -101 25 -33 c13 -18 36 -53 49 -78 13 -25 28 -52 33
-60 5 -8 19 -35 32 -60 12 -25 25 -47 29 -50 6 -5 25 -41 81 -150 12 -25 38
-69 57 -97 l34 -53 292 0 292 0 57 -92 c32 -51 71 -121 87 -154 16 -34 43 -85
60 -113 16 -29 30 -57 30 -63 0 -5 14 -28 31 -49 l31 -39 292 0 292 0 22 -43
c28 -53 47 -86 98 -167 22 -36 58 -99 80 -140 21 -41 44 -80 51 -87 6 -7 17
-26 24 -43 l14 -30 298 -2 299 -3 47 -90 c71 -136 126 -230 194 -333 l61 -92
286 0 285 0 34 -62 c19 -35 38 -65 42 -68 4 -3 27 -43 52 -90 24 -47 58 -107
75 -135 17 -27 45 -74 61 -103 l31 -52 334 0 335 0 32 58 c18 31 35 59 39 62
8 7 60 96 85 146 11 23 47 87 80 142 l60 101 289 3 289 3 45 75 c25 41 48 77
52 80 10 9 122 206 187 330 l13 25 296 5 297 5 20 38 c10 20 23 37 28 37 5 0
9 5 9 11 0 14 87 168 147 261 23 37 53 88 65 113 l22 45 292 0 293 0 24 33
c23 31 51 84 135 252 9 17 18 32 22 35 3 3 21 32 39 65 19 33 43 75 55 92 l21
33 292 0 291 0 35 52 c19 29 43 71 54 93 57 113 77 150 83 155 4 3 17 25 29
50 13 25 27 52 32 60 5 8 20 35 33 60 13 25 36 60 49 78 l25 33 -66 117 c-36
64 -80 140 -99 169 -18 29 -47 80 -63 115 -17 35 -38 75 -47 89 -16 25 -15 29
30 121 26 53 54 102 63 109 9 8 36 54 60 104 24 49 61 117 82 150 l40 60 -26
45 c-46 79 -71 118 -82 125 -5 3 -10 12 -10 20 0 8 -15 40 -34 72 -31 54 -91
163 -123 223 -18 35 -17 41 17 91 16 24 30 50 30 57 0 7 11 28 24 45 14 18 48
77 76 132 28 55 67 127 87 159 l36 60 -28 50 c-16 28 -41 69 -57 90 -15 21
-28 45 -28 53 0 15 -74 149 -96 174 -8 8 -14 22 -14 30 0 8 -14 34 -30 58 -17
24 -30 50 -30 57 0 7 14 36 30 64 17 28 30 53 30 56 0 3 25 48 55 100 30 53
55 100 55 107 0 6 6 18 14 26 8 9 35 49 59 90 51 84 53 64 -18 176 -18 28 -48
85 -68 127 -21 42 -47 89 -60 105 -12 15 -40 63 -62 106 l-40 78 22 37 c12 20
33 61 47 89 14 29 40 77 59 105 42 66 157 272 157 283 0 4 -15 33 -34 64 -18
31 -52 90 -75 132 -22 43 -57 101 -76 130 -19 30 -35 59 -35 66 0 13 -46 94
-87 156 l-26 37 -290 0 c-329 0 -291 -11 -354 100 -20 36 -49 84 -65 107 -15
23 -28 47 -28 53 0 6 -18 42 -40 81 -22 39 -40 75 -40 80 0 5 -12 27 -27 48
l-28 40 -295 1 -295 0 -43 78 c-23 42 -62 109 -87 149 -24 39 -59 100 -78 135
-19 35 -46 82 -62 106 l-28 42 -291 0 -292 0 -37 65 c-20 35 -37 71 -37 79 0
8 -4 17 -8 20 -5 3 -30 43 -57 88 -26 46 -72 120 -101 165 -30 44 -54 86 -54
92 0 8 -87 11 -293 11 l-292 0 -34 63 c-19 34 -45 76 -57 92 -13 17 -33 53
-46 80 -29 62 -76 144 -98 170 -9 11 -27 41 -41 68 l-24 47 -331 0 -331 0 -11
-26z m610 -153 c40 -67 79 -132 140 -231 32 -52 61 -106 65 -120 3 -14 12 -34
19 -44 15 -22 17 -20 -191 -368 l-58 -98 -242 0 -243 0 -44 78 c-25 42 -70
118 -100 168 -31 50 -69 116 -86 146 l-31 54 42 85 c23 46 58 109 78 139 20
30 60 94 88 142 l53 87 243 1 243 0 24 -39z m-832 -581 c30 -52 63 -106 73
-120 9 -13 17 -30 17 -38 0 -7 23 -52 50 -98 l50 -85 -48 -87 c-27 -48 -54
-102 -62 -120 -7 -19 -18 -39 -25 -45 -16 -17 -95 -154 -95 -166 0 -5 -7 -17
-16 -25 -13 -14 -52 -16 -268 -16 l-252 0 -27 59 c-15 32 -27 61 -27 64 0 3
-22 41 -50 84 -27 43 -50 81 -50 86 0 4 -22 42 -48 85 l-48 77 27 47 c16 26
42 73 60 105 18 31 44 74 59 95 15 20 33 52 40 70 7 18 22 54 34 81 l21 47
265 -2 265 -3 55 -95z m1721 80 c4 -8 17 -40 29 -70 13 -30 37 -77 55 -105 18
-27 58 -94 89 -149 l56 -98 -66 -117 c-37 -64 -80 -135 -95 -158 -16 -23 -29
-47 -29 -53 0 -7 -6 -24 -14 -38 -8 -15 -19 -39 -25 -54 l-11 -28 -257 0 -258
0 -60 102 c-33 56 -86 152 -118 212 -32 61 -62 115 -67 120 -4 4 10 40 32 80
21 39 48 91 59 116 11 25 26 52 33 60 8 8 26 38 41 65 15 28 38 69 52 93 l25
42 260 -2 c220 -3 262 -5 269 -18z m-872 -560 c24 -41 56 -93 71 -115 29 -43
78 -130 120 -211 23 -44 25 -54 13 -70 -7 -10 -13 -23 -13 -30 0 -16 -121
-225 -198 -341 l-34 -53 -243 0 -242 0 -26 38 c-72 107 -199 327 -215 375 -13
36 -12 41 21 105 18 37 53 99 77 137 23 39 65 108 93 155 l50 85 241 0 241 0
44 -75z m-1735 -32 c43 -83 136 -245 185 -322 12 -20 8 -32 -60 -149 -41 -70
-87 -153 -104 -185 -16 -32 -40 -75 -53 -95 l-24 -37 -256 0 -257 1 -28 43
c-15 24 -39 68 -52 97 -14 30 -33 68 -43 84 -9 17 -35 64 -58 105 -22 41 -46
85 -54 96 -12 19 -10 25 14 57 15 19 63 106 108 194 44 87 87 170 95 186 l15
27 260 -2 261 -3 51 -97z m3509 36 c20 -36 37 -70 37 -75 0 -4 14 -30 30 -56
17 -26 30 -52 30 -58 0 -7 25 -51 55 -100 30 -48 55 -89 55 -91 0 -2 -22 -41
-48 -86 -27 -46 -68 -123 -92 -173 -24 -49 -58 -111 -74 -137 l-31 -48 -257 0
-256 0 -24 37 c-13 20 -36 63 -53 95 -16 32 -63 115 -104 185 -72 123 -74 127
-59 152 9 14 41 70 72 125 32 54 63 105 71 113 8 8 18 26 22 41 3 15 22 53 40
84 l34 58 257 0 257 0 38 -66z m-4408 -529 c26 -47 51 -87 56 -91 5 -3 19 -24
31 -47 11 -23 39 -71 62 -107 70 -109 70 -109 31 -187 -19 -37 -63 -115 -99
-173 -36 -58 -79 -129 -96 -157 l-31 -53 -248 0 -247 0 -18 33 c-11 17 -34 55
-52 82 -63 98 -174 311 -174 336 0 21 24 71 65 134 18 28 35 62 39 77 3 14 16
39 29 55 13 15 43 63 66 106 l42 77 249 0 249 0 46 -85z m1756 13 c24 -40 60
-100 81 -133 21 -33 38 -66 38 -73 0 -7 23 -47 51 -90 l51 -77 -33 -60 c-18
-33 -40 -72 -51 -87 -10 -14 -18 -32 -18 -39 0 -7 -10 -29 -23 -48 -13 -20
-39 -61 -59 -91 -20 -30 -44 -72 -54 -92 l-18 -38 -256 0 -256 0 -33 73 c-17
41 -47 97 -66 126 -42 64 -145 245 -145 255 0 4 19 38 43 74 24 37 58 94 77
127 18 33 39 67 46 75 6 8 24 44 39 80 15 36 32 71 37 78 8 9 72 12 259 12
l248 0 42 -72z m1774 -18 c21 -49 40 -90 44 -92 4 -2 22 -30 41 -63 18 -33 51
-86 72 -117 21 -32 41 -64 44 -73 6 -14 -76 -170 -137 -260 -23 -34 -43 -73
-92 -182 -10 -23 -11 -23 -262 -23 l-252 0 -58 93 c-32 50 -65 103 -73 117 -9
14 -37 66 -62 115 -26 50 -53 99 -59 110 -11 18 -8 28 29 84 23 34 49 79 57
99 8 20 30 60 48 87 18 28 51 83 74 123 l42 73 253 -1 254 -1 37 -89z m1755
13 c25 -43 57 -96 72 -117 15 -21 28 -45 28 -53 0 -7 17 -42 38 -76 77 -127
73 -112 42 -182 -15 -34 -39 -80 -54 -103 -14 -23 -26 -46 -26 -51 0 -9 -59
-111 -71 -121 -3 -3 -20 -31 -38 -62 l-32 -58 -249 0 -249 0 -36 63 c-20 34
-56 94 -80 132 -67 104 -119 196 -131 231 -12 34 -1 65 42 129 26 38 104 167
161 268 l44 77 248 0 247 0 44 -77z m-6133 -566 c63 -108 116 -202 160 -289
20 -39 21 -37 -96 -249 -14 -26 -51 -88 -81 -138 l-54 -91 -257 0 -257 0 -26
44 c-14 25 -26 50 -26 57 0 6 -24 48 -53 93 -30 44 -73 121 -97 170 -35 72
-41 91 -31 105 6 9 23 41 38 71 15 30 50 91 78 135 28 44 66 110 84 148 l34
67 256 0 256 -1 72 -122z m1709 86 c10 -21 22 -40 25 -43 3 -3 21 -36 40 -75
19 -38 37 -71 42 -73 4 -2 7 -10 7 -17 0 -7 3 -15 8 -17 4 -1 31 -43 61 -92
l54 -89 -26 -51 c-15 -28 -56 -96 -92 -151 -36 -55 -65 -104 -65 -109 0 -5
-17 -38 -37 -73 l-37 -63 -256 0 -255 0 -42 75 c-24 41 -43 81 -43 90 0 8 -4
15 -9 15 -5 0 -18 21 -30 48 -12 26 -42 81 -67 122 -60 102 -58 97 -38 127 25
34 60 95 91 158 14 28 31 57 38 65 7 8 16 26 20 40 4 14 23 48 41 76 19 28 34
56 34 63 0 8 71 11 258 11 l259 0 19 -37z m3598 -131 c49 -92 104 -190 123
-218 18 -28 33 -54 33 -57 0 -3 -14 -30 -31 -59 -30 -51 -70 -124 -148 -273
-69 -129 -28 -115 -322 -115 l-257 0 -36 61 c-20 33 -36 65 -36 71 0 6 -24 47
-53 92 -60 91 -127 209 -127 224 0 9 30 60 97 164 18 27 56 93 84 145 28 53
56 104 62 114 11 18 29 19 267 19 l255 0 89 -168z m1707 101 c35 -70 98 -178
130 -225 11 -14 19 -31 19 -38 0 -7 14 -32 30 -57 17 -24 30 -49 30 -56 0 -7
-15 -37 -34 -69 -19 -31 -32 -59 -29 -62 3 -2 -8 -24 -24 -48 -74 -108 -103
-154 -103 -165 0 -7 -12 -33 -27 -58 l-28 -45 -258 0 -258 0 -12 28 c-7 15
-19 38 -28 52 -86 136 -199 346 -199 368 0 7 5 12 11 12 5 0 7 4 4 10 -8 13
19 52 30 42 5 -4 5 -2 2 5 -7 11 58 143 98 198 12 17 40 63 61 102 l39 73 256
0 256 0 34 -67z m-6198 -475 c8 -13 49 -78 90 -146 42 -67 86 -139 97 -160 11
-20 24 -44 29 -52 28 -51 32 -62 23 -73 -5 -7 -12 -23 -15 -38 -4 -14 -30 -61
-59 -105 -30 -43 -76 -117 -102 -164 -77 -133 -42 -120 -326 -120 -285 0 -249
-14 -330 130 -29 52 -72 127 -94 165 -23 39 -47 87 -55 108 -15 45 -9 64 51
169 21 36 38 71 38 76 0 5 22 43 50 85 27 41 57 91 66 111 l18 36 253 0 c251
0 253 0 266 -22z m5298 -15 c12 -21 37 -62 56 -91 19 -29 54 -90 77 -135 24
-45 55 -104 69 -131 24 -44 25 -50 12 -69 -8 -12 -15 -27 -15 -34 0 -8 -20
-46 -43 -86 -24 -39 -68 -115 -97 -167 -81 -144 -45 -130 -330 -130 -285 0
-251 -13 -328 126 -28 49 -64 107 -80 127 -16 20 -46 70 -66 111 -30 60 -35
79 -27 95 38 75 124 225 132 231 5 4 33 49 106 168 13 22 15 22 262 22 l249 0
23 -37z m-6171 -503 c7 -17 27 -50 44 -73 47 -64 96 -148 96 -164 0 -8 14 -34
31 -59 43 -63 60 -109 53 -142 -8 -33 -49 -106 -69 -122 -8 -7 -15 -18 -15
-25 0 -14 -118 -224 -137 -243 -7 -7 -13 -18 -13 -23 0 -5 -107 -9 -260 -9
-143 0 -260 4 -260 8 0 5 -9 19 -20 32 -11 13 -23 35 -27 49 -3 14 -30 64 -59
111 -29 47 -67 112 -84 145 -17 33 -35 64 -41 69 -16 17 -10 40 21 89 17 26
30 52 30 57 0 6 26 54 57 108 31 53 72 125 92 160 l35 62 257 0 257 0 12 -30z
m3508 12 c2 -7 19 -34 37 -60 27 -38 139 -227 174 -292 43 -80 42 -76 24 -112
-41 -83 -48 -94 -63 -110 -9 -10 -46 -70 -83 -135 -105 -184 -61 -164 -346
-161 l-244 3 -68 115 c-37 63 -82 135 -99 159 -18 25 -45 72 -60 106 l-27 61
22 44 c41 83 148 265 170 290 13 14 32 44 44 68 l22 43 246 -3 c189 -2 247 -6
251 -16z m3561 -39 c17 -32 36 -65 41 -73 44 -69 110 -191 110 -203 0 -8 6
-20 14 -26 8 -7 23 -29 34 -50 l20 -37 -37 -70 c-20 -38 -53 -94 -72 -124 -20
-30 -51 -86 -69 -125 -19 -38 -42 -82 -53 -97 l-18 -28 -258 0 -257 0 -22 30
c-12 16 -22 33 -22 37 0 5 -11 25 -25 46 -14 20 -41 65 -58 100 -18 34 -50 89
-72 122 -49 76 -53 133 -13 192 14 21 49 82 77 137 28 54 57 104 65 110 8 6
27 35 42 64 l28 52 257 0 256 0 32 -57z m-6186 -493 c10 -16 23 -35 30 -42 7
-7 44 -67 82 -133 38 -66 74 -125 80 -131 6 -7 19 -33 29 -58 20 -53 16 -72
-35 -156 -15 -25 -57 -94 -92 -155 -36 -60 -75 -127 -88 -147 l-24 -37 -257
-1 -258 0 -6 25 c-3 14 -12 29 -18 33 -14 8 -106 166 -106 182 0 11 -29 61
-41 70 -4 3 -21 36 -40 73 -32 66 -32 69 -16 97 9 15 17 34 17 41 0 7 6 20 14
28 8 9 42 69 75 134 33 65 67 124 75 133 9 8 23 28 33 44 l17 30 256 0 256 0
17 -30z m1760 -2 c10 -18 31 -51 47 -73 16 -22 48 -78 72 -125 23 -47 57 -107
75 -135 48 -72 48 -79 12 -132 -64 -95 -69 -102 -69 -113 0 -12 -76 -148 -127
-228 l-34 -52 -252 2 -252 3 -30 60 c-39 80 -124 234 -136 249 -26 30 -79 122
-78 136 0 8 13 35 29 60 47 73 154 261 185 323 l28 57 257 0 256 0 17 -32z
m1788 -35 c29 -60 97 -179 182 -320 30 -48 30 -72 2 -108 -50 -66 -142 -224
-175 -305 -41 -97 -20 -91 -301 -89 l-246 1 -40 61 c-58 90 -123 204 -123 216
0 5 -22 44 -50 85 -27 42 -50 79 -50 83 0 5 16 35 37 68 20 33 58 103 86 155
50 96 77 139 109 174 10 11 18 26 18 33 0 10 52 13 259 13 l259 0 33 -67z
m1730 46 c6 -12 26 -41 43 -64 18 -23 54 -87 81 -141 26 -54 51 -101 56 -104
10 -7 49 -97 49 -114 0 -18 -45 -106 -74 -145 -14 -19 -26 -41 -26 -49 0 -21
-122 -227 -145 -245 -5 -4 -119 -7 -251 -6 l-242 1 -30 47 c-16 25 -51 84 -77
131 -27 47 -67 114 -89 150 -56 87 -70 120 -56 134 5 5 10 17 10 25 0 8 17 42
39 75 21 34 64 104 96 156 31 52 68 112 82 133 l26 37 248 0 c243 0 249 0 260
-21z m918 -554 c38 -72 147 -269 187 -339 l22 -39 -45 -86 c-26 -47 -67 -122
-93 -166 -25 -44 -59 -106 -75 -137 l-28 -58 -262 0 -262 0 -41 64 c-52 80
-112 185 -112 196 0 5 -19 39 -42 75 -52 84 -55 130 -12 200 33 54 41 69 80
145 15 30 49 89 74 130 l47 75 244 5 c134 3 252 6 262 5 13 0 31 -23 56 -70z
m-7089 56 c0 -4 12 -26 27 -47 41 -60 123 -204 123 -216 0 -6 16 -35 36 -65
62 -93 62 -123 0 -216 -20 -30 -36 -59 -36 -64 0 -10 -63 -123 -126 -225 l-29
-48 -259 3 -258 2 -42 80 c-23 44 -60 112 -82 150 -22 39 -50 88 -61 110 -11
22 -29 54 -39 72 l-18 31 32 52 c18 28 32 55 32 59 0 4 29 57 65 117 36 60 65
117 65 127 0 9 4 17 8 17 5 0 16 16 25 35 l17 35 260 0 c143 0 260 -4 260 -9z
m3541 -43 c55 -85 156 -258 192 -330 28 -57 31 -69 20 -84 -7 -10 -13 -24 -13
-32 0 -7 -13 -32 -28 -55 -16 -23 -50 -80 -76 -127 -27 -47 -66 -113 -88 -147
l-40 -63 -243 0 -243 0 -23 38 c-13 20 -26 39 -29 42 -3 3 -32 52 -65 110 -32
58 -70 123 -84 145 -60 91 -59 129 5 230 17 28 53 88 80 135 26 47 63 109 81
138 l34 52 243 0 244 0 33 -52z m1779 -6 c19 -31 36 -61 38 -67 9 -28 98 -198
133 -254 l40 -64 -40 -66 c-22 -36 -67 -120 -101 -186 -34 -66 -71 -137 -83
-157 l-22 -38 -257 0 -258 0 -20 38 c-12 20 -29 51 -38 67 -9 17 -36 66 -60
110 -25 44 -59 103 -78 131 -66 101 -67 87 24 237 44 73 90 155 102 182 12 27
25 52 29 55 5 3 16 20 25 38 l17 32 257 0 257 -1 35 -57z m-4395 -549 c32 -54
85 -143 119 -198 75 -122 88 -151 77 -173 -18 -37 -38 -74 -82 -149 -26 -43
-59 -100 -74 -127 -15 -28 -37 -59 -47 -70 -11 -12 -26 -33 -34 -48 l-15 -28
-249 0 -249 0 -17 33 c-9 17 -20 34 -24 37 -15 10 -80 120 -105 176 -14 32
-37 73 -50 90 -14 18 -25 39 -25 46 0 8 -7 23 -15 34 -13 19 -11 27 20 88 18
36 43 79 54 95 12 16 21 35 21 43 0 11 30 64 122 216 l20 32 248 0 248 0 57
-97z m1727 60 c35 -53 89 -146 133 -228 21 -38 53 -94 73 -124 l35 -54 -28
-51 c-15 -28 -33 -58 -40 -66 -6 -8 -33 -58 -59 -110 -26 -52 -61 -112 -77
-132 -16 -20 -34 -48 -40 -62 l-12 -26 -257 0 -257 0 -12 28 c-8 15 -17 34
-22 42 -5 8 -12 22 -16 30 -13 29 -120 216 -156 272 -21 31 -37 63 -37 71 0 7
29 58 65 113 36 54 91 152 122 217 l58 117 251 0 251 0 25 -37z m1814 -88 c33
-66 88 -162 122 -214 34 -52 62 -102 61 -110 0 -9 -13 -36 -29 -61 -35 -55
-154 -259 -163 -280 -4 -8 -11 -22 -16 -30 -5 -8 -14 -27 -20 -42 l-11 -28
-258 0 -259 0 -11 24 c-6 13 -26 44 -44 68 -19 25 -54 85 -78 134 -25 49 -59
111 -77 139 -48 72 -48 78 -10 137 19 29 51 85 72 123 52 98 83 152 123 213
l34 52 252 -2 251 -3 61 -120z m1716 85 c72 -121 118 -203 118 -214 0 -8 9
-25 20 -38 11 -14 35 -55 53 -90 31 -59 33 -68 21 -89 -7 -13 -13 -30 -14 -37
0 -7 -11 -28 -24 -45 -13 -18 -42 -71 -66 -119 -23 -48 -57 -107 -74 -130 -18
-24 -38 -53 -45 -65 -12 -23 -13 -23 -259 -23 l-248 0 -61 93 c-34 50 -80 125
-102 165 -23 41 -50 85 -61 99 -11 14 -20 33 -20 42 0 10 -5 22 -10 27 -14 14
0 47 56 134 23 36 58 97 79 135 21 39 46 82 56 97 11 14 19 29 19 32 0 4 10
21 23 37 l22 31 248 -3 248 -4 21 -35z m-6151 -532 c34 -56 66 -112 109 -189
14 -26 41 -73 60 -105 42 -71 46 -129 12 -172 -12 -15 -31 -47 -43 -72 -30
-64 -49 -99 -78 -144 -45 -68 -71 -110 -83 -133 -11 -23 -12 -23 -270 -23
l-258 0 -28 58 c-15 31 -33 61 -39 65 -7 4 -13 12 -13 17 0 6 -22 47 -50 93
-27 46 -50 89 -50 95 0 7 -13 31 -30 54 -16 22 -30 49 -30 59 0 18 72 163 94
189 19 22 96 160 96 171 0 5 12 27 26 49 l27 40 257 0 258 0 33 -52z m3502 15
c13 -21 50 -83 82 -138 31 -55 64 -109 74 -120 27 -31 46 -66 60 -112 14 -43
6 -84 -24 -123 -6 -8 -38 -62 -70 -120 -32 -58 -62 -106 -67 -108 -4 -2 -24
-33 -44 -68 l-36 -64 -244 0 -244 1 -25 48 c-13 27 -35 61 -48 77 -20 23 -102
161 -146 244 -40 75 -40 74 -25 100 7 14 14 32 14 40 0 8 14 33 30 55 16 22
59 92 96 155 37 63 77 127 88 143 l20 27 242 0 241 0 26 -37z m3524 20 c7 -10
29 -50 49 -90 19 -40 55 -102 79 -139 25 -37 45 -70 45 -75 0 -5 14 -31 30
-57 17 -27 30 -55 30 -61 0 -16 -29 -71 -46 -89 -8 -7 -14 -19 -14 -27 0 -14
-69 -140 -102 -188 -11 -15 -34 -55 -50 -88 l-30 -59 -256 2 -257 3 -25 47
c-14 26 -35 58 -46 70 -24 27 -84 133 -84 148 0 6 -19 41 -42 77 -51 81 -53
118 -12 189 15 27 31 51 35 54 3 3 16 25 29 50 26 52 93 170 124 217 l21 33
254 0 c230 0 255 -2 268 -17z m-6117 -615 c35 -62 73 -124 86 -138 12 -14 41
-62 64 -108 32 -62 40 -86 31 -95 -6 -6 -11 -16 -11 -23 0 -7 -36 -70 -80
-141 -43 -70 -96 -158 -117 -195 l-38 -68 -252 0 -252 0 -43 71 c-24 40 -51
83 -60 98 -10 14 -29 49 -43 76 -13 28 -42 84 -64 125 -35 67 -38 76 -25 94 8
11 14 26 14 33 0 8 20 46 44 86 24 39 71 123 106 185 l62 112 258 0 257 0 63
-112z m5237 95 c6 -16 98 -176 172 -301 17 -29 31 -57 31 -63 0 -5 7 -20 15
-33 14 -21 13 -28 -26 -102 -23 -43 -48 -88 -55 -99 -8 -11 -14 -25 -14 -33 0
-7 -11 -28 -25 -46 -14 -18 -25 -38 -25 -44 0 -6 -4 -12 -8 -14 -5 -1 -24 -30
-43 -63 l-35 -60 -253 0 -254 0 -52 85 c-28 47 -82 134 -118 194 -37 60 -67
114 -67 120 0 7 -5 17 -11 23 -7 7 -7 17 -2 29 45 92 79 153 98 174 12 14 51
76 85 138 l62 112 260 0 c236 0 259 -1 265 -17z m-6136 -560 c23 -43 48 -85
54 -93 13 -15 47 -76 112 -198 18 -35 33 -74 33 -86 0 -29 -46 -116 -169 -324
l-73 -122 -261 2 -262 3 -35 70 c-19 39 -47 89 -63 112 -15 24 -27 47 -27 52
0 5 -7 14 -16 22 -8 7 -29 40 -45 73 -16 34 -36 72 -45 86 -16 24 -15 28 20
87 20 34 36 67 36 73 0 7 24 49 54 93 30 45 69 115 87 155 l34 72 262 0 262 0
42 -77z m1613 68 l109 -6 39 -75 c41 -79 43 -84 81 -140 41 -63 127 -217 127
-229 0 -6 -15 -35 -34 -64 -88 -138 -106 -168 -151 -252 -26 -49 -53 -98 -59
-108 -10 -16 -31 -17 -266 -15 l-254 3 -34 60 c-19 33 -53 96 -77 140 -71 134
-108 199 -122 213 -18 19 -17 24 17 82 32 54 77 136 155 285 26 50 52 96 57
103 11 13 208 15 412 3z m3669 -56 c20 -35 37 -69 37 -74 0 -6 14 -30 30 -54
17 -25 30 -48 30 -51 0 -3 25 -49 55 -101 30 -53 55 -102 55 -110 0 -7 -22
-50 -49 -94 -28 -45 -59 -100 -70 -123 -11 -24 -43 -83 -69 -133 l-50 -90
-264 -3 -265 -2 -42 82 c-23 46 -57 108 -76 138 -19 30 -49 80 -66 110 -18 30
-42 67 -52 82 l-20 27 33 58 c18 32 44 78 58 102 14 25 42 70 63 100 22 31 39
61 39 68 0 11 22 53 57 111 13 22 15 22 271 22 l258 0 37 -65z m1575 58 l152
-6 24 -41 c13 -23 26 -52 29 -66 3 -14 26 -52 50 -85 40 -56 137 -237 137
-257 0 -5 -13 -29 -30 -53 -16 -24 -30 -50 -30 -58 0 -8 -8 -25 -18 -38 -11
-13 -32 -46 -47 -74 -16 -27 -32 -52 -35 -55 -4 -3 -23 -40 -44 -82 l-38 -78
-257 0 -256 0 -39 73 c-22 39 -49 86 -61 102 -13 17 -50 83 -85 148 -70 133
-70 127 -6 237 20 34 36 65 36 71 0 5 15 31 34 58 19 26 44 68 57 92 12 24 33
61 46 82 l23 37 104 0 c56 0 171 -3 254 -7z m-6021 -530 c4 -10 11 -22 15 -28
20 -24 148 -236 148 -245 0 -6 4 -10 8 -10 9 0 48 -74 67 -126 11 -29 9 -39
-15 -81 -12 -23 -100 -170 -162 -271 -26 -42 -51 -84 -55 -92 -3 -8 -11 -18
-17 -22 -6 -4 -119 -8 -252 -8 l-241 0 -34 60 c-19 33 -51 86 -71 118 -21 31
-38 63 -38 70 0 21 -36 86 -59 106 -12 11 -21 27 -21 38 0 10 -6 27 -12 38
-10 16 -10 24 0 40 6 11 12 25 12 31 0 16 139 270 161 295 11 11 19 23 19 27
0 4 10 23 23 42 l22 35 248 0 c227 0 248 -1 254 -17z m1786 -38 c16 -27 32
-52 36 -55 3 -3 17 -25 30 -50 13 -25 28 -50 33 -57 5 -6 28 -49 52 -95 24
-45 51 -97 61 -113 l18 -31 -52 -79 c-28 -43 -51 -84 -51 -91 0 -6 -17 -38
-38 -70 -21 -33 -57 -92 -81 -131 l-42 -73 -246 0 c-215 0 -249 2 -265 17 -10
9 -18 22 -18 29 0 18 -54 130 -91 189 -110 174 -129 205 -129 211 0 10 121
227 134 240 9 9 66 118 99 192 l11 22 255 -2 255 -3 29 -50z m1754 33 c6 -13
23 -50 38 -83 15 -33 42 -82 60 -110 51 -79 135 -226 135 -236 0 -5 -24 -49
-54 -97 -30 -48 -70 -112 -89 -142 -19 -30 -45 -80 -57 -110 -45 -113 -8 -100
-296 -100 l-253 0 -42 73 c-23 39 -56 95 -74 122 -18 28 -40 67 -48 87 -8 20
-34 65 -57 100 l-42 63 28 50 c16 27 45 80 64 116 86 162 99 186 113 197 7 7
22 30 32 52 l18 40 257 0 c256 0 257 0 267 -22z m1739 13 c-4 -5 -2 -11 2 -13
17 -7 135 -191 147 -230 4 -11 23 -48 43 -82 22 -38 36 -74 36 -95 0 -19 2
-29 4 -22 2 6 7 9 12 6 7 -4 -26 -84 -40 -95 -8 -7 -60 -101 -60 -109 0 -9
-122 -214 -139 -235 -10 -12 -52 -15 -254 -16 l-242 0 -60 100 c-33 56 -81
137 -107 181 -26 44 -54 87 -63 95 -8 9 -15 24 -15 34 0 10 -4 21 -9 24 -14 9
13 74 63 156 25 41 58 97 73 123 16 27 40 64 55 84 15 19 33 50 40 69 l12 34
254 0 c150 0 251 -4 248 -9z m-4373 -548 c14 -21 37 -63 51 -93 14 -30 60
-111 101 -180 41 -69 75 -130 75 -137 0 -6 -6 -18 -13 -25 -7 -7 -32 -47 -55
-88 -22 -41 -57 -100 -77 -130 -19 -30 -35 -60 -35 -67 0 -6 -16 -39 -35 -72
l-36 -61 -257 0 -257 0 -19 33 c-11 17 -53 97 -93 177 -41 80 -88 166 -104
192 l-30 46 49 84 c28 45 57 101 66 122 9 22 22 46 28 54 7 8 17 28 23 46 6
17 26 55 45 84 l35 52 256 0 256 0 26 -37z m1750 0 c66 -99 207 -341 207 -357
0 -7 6 -20 13 -31 12 -15 11 -24 -9 -60 -37 -70 -102 -184 -168 -295 l-62
-105 -247 -3 -246 -2 -42 72 c-23 40 -56 96 -74 123 -51 79 -112 190 -126 229
-10 28 -10 39 -1 48 7 7 12 18 12 25 0 16 87 170 112 199 10 11 18 23 18 27 0
9 70 127 89 148 14 18 34 19 257 19 l241 0 26 -37z m1784 -15 c34 -58 57 -102
101 -194 16 -33 48 -91 71 -129 l42 -69 -21 -28 c-11 -15 -45 -76 -75 -135
-31 -59 -60 -112 -65 -117 -6 -6 -10 -15 -10 -22 0 -7 -17 -42 -37 -78 l-38
-66 -259 2 -259 3 -51 97 c-75 143 -142 259 -171 297 -14 19 -25 40 -25 45 0
6 34 67 75 136 41 69 86 149 100 178 14 28 37 70 51 92 l27 40 256 0 257 0 31
-52z m-2617 -555 c35 -60 84 -148 110 -198 26 -49 55 -104 66 -121 l18 -31
-52 -92 c-29 -50 -52 -97 -52 -105 0 -8 -4 -17 -9 -21 -6 -3 -33 -47 -62 -98
-80 -141 -42 -127 -343 -127 l-261 0 -23 48 c-12 26 -22 50 -22 55 0 4 -19 38
-41 75 -23 37 -63 103 -89 147 -25 44 -53 90 -61 103 -9 15 -11 25 -3 30 20
14 187 307 221 390 l22 52 259 0 259 0 63 -107z m1722 80 c29 -71 50 -119 58
-133 5 -8 40 -68 77 -133 37 -65 75 -126 85 -136 18 -21 23 -11 -112 -241 -37
-63 -78 -141 -90 -173 l-24 -57 -265 2 -265 3 -62 105 c-35 58 -74 128 -88
157 -13 29 -41 79 -60 113 -35 59 -44 90 -28 90 9 0 92 145 92 161 0 6 14 31
30 56 17 24 49 78 71 119 22 41 48 78 57 83 10 6 128 10 265 11 l247 0 12 -27z
m-878 -546 c16 -28 44 -75 63 -103 37 -58 98 -163 138 -240 l27 -52 -44 -89
c-24 -48 -61 -115 -81 -148 -21 -33 -58 -91 -83 -130 -24 -38 -44 -73 -44 -77
0 -5 -114 -8 -252 -8 l-253 1 -70 117 c-38 64 -76 123 -83 131 -17 18 -102
196 -102 214 0 8 7 20 15 27 8 7 15 19 15 27 0 7 5 19 11 26 6 7 37 56 68 109
31 53 76 131 101 172 l45 75 250 1 250 0 29 -53z"/>
</g>
</svg>
